<svg xmlns="http://www.w3.org/2000/svg" width="1280" height="1280" viewBox="0 0 1600 608"><path fill="#E0B246" d="M341 106c2.22.366 4.45.675 6.69.938 6.05.807 11.5 2.15 17.3 4.06 1.62.46 3.25.918 4.88 1.38 5.9 1.78 11.5 4.13 17.1 6.62l1.94.848c16.6 7.34 31 16.7 45.1 28.2 1.33 1 2.67 2 4 3 3.84 3.16 7.54 6.42 11 10l1.44 1.42c26.6 26.9 26.6 26.9 26.6 36.6l3 1c1.03 1.58 1.03 1.58 1.94 3.58.339.724.678 1.45 1.03 2.19.34.734.68 1.47 1.03 2.22.648 1.28 1.3 2.55 1.96 3.82 5.33 10.4 9.78 21 13.4 32.1.436 1.34.896 2.67 1.38 3.99 4.89 13.5 6.73 27.4 8.04 41.6l.197 2.11c1.74 19 1.74 19 .053 27.3-.226 1.94-.429 3.89-.613 5.83-1.27 12.8-2.88 24.8-6.39 37.2-.39 1.75-.767 3.5-1.12 5.25-.723 3.1-1.48 5-2.88 7.75-.557 1.58-1.1 3.16-1.62 4.75-2.53 7.07-5.95 13.6-9.38 20.3-1.95 3.83-3.8 7.72-5.67 11.6-1.25 2.23-2.48 3.62-4.32 5.36l-1.56 2.69c-.712 1.14-.712 1.14-1.44 2.31h-2l-.188 1.62c-1.17 3.42-3.48 5.64-5.81 8.38l-1 2.06c-1.47 2.84-3.72 4.71-6 6.94-.906 1.1-1.8 2.2-2.69 3.31-.763.887-1.53 1.77-2.31 2.69h-2l-.812 1.94c-1.19 2.06-1.19 2.06-4.19 3.06l-1 2-1 2-3 1-1 2-1 2-3 1c-.742.742-1.49 1.48-2.25 2.25-3.08 3.08-6.12 5.35-9.75 7.75h-2v2c-4.13 2.97-8.6 5.46-13 8-.583.339-1.17.677-1.77 1.03-43.4 24.9-99.4 34.2-148 22l-2.86-.683c-12.4-3.05-24.3-7.36-36-12.4-1.16-.494-2.32-.989-3.51-1.5-9.14-4.01-17.5-8.68-25.5-14.7-2.96-2.23-5.75-4.21-9.12-5.75v-2l-2.44-.812c-.846-.392-1.69-.784-2.56-1.19l-1-3-1.75-.398c-3.3-.881-4.88-2.85-7.29-5.24l-1.44-1.43c-1.54-1.53-3.06-3.08-4.59-4.62-.78-.787-.78-.787-1.58-1.59-7.74-7.81-15-15.7-21.4-24.7l-1.26-1.78c-9.34-13.3-17.3-26.9-22.7-42.2-.68-1.67-1.37-3.34-2.06-5-4.08-10.3-6.61-20.6-8.63-31.5-.157-.833-.313-1.67-.475-2.52l-.415-2.27c-.26-1.76-.26-1.76-1.42-2.74-.249-2.57-.43-5.11-.562-7.69l-.126-2.41c-.886-18.7-.889-37.5 2.69-55.9l.402-2.13c2.09-11 4.75-21.4 8.6-31.9l1.11-3.22c3.14-8.73 7.38-16.7 11.8-24.8a272.1 272.1 0 0 0 2.68-5.07c3.54-6.77 7.74-12.8 12.4-18.9.755-1.04 1.51-2.07 2.29-3.14 12.4-16.8 27.8-30.8 44.7-42.9.615-.449 1.23-.897 1.86-1.36 18.2-13.2 40.7-22.5 62.4-28.1l2.51-.649c1.66-.425 3.31-.849 4.97-1.27 1.94-.498 3.88-1.01 5.82-1.53 20.9-5.31 55.3-8.22 75.4-.047z"/><path fill="#225394" d="M311-.261c2.67.01 5.34 0 8.01-.013 16.1-.012 32 1.24 47.9 4.27 1.18.215 2.35.431 3.57.652 10.7 2.03 21.1 4.65 31.3 8.53 2.31.872 4.63 1.71 6.96 2.54.813.293 1.63.585 2.46.887 1.67.601 3.35 1.2 5.02 1.79 4.08 1.48 7.3 2.88 10.7 5.61 1.75.863 3.51 1.72 5.28 2.55 6.7 3.13 12.9 6.65 18.8 11 .602.434 1.2.87 1.83 1.32 6.36 4.78 13.1 11.2 14.4 19.4.406 6.84-1.41 12.2-5.35 17.8-4.82 4.89-10.5 6.6-17.2 7.38-8.78-.878-15.5-4.6-22.5-9.77-2.61-1.89-5.28-3.26-8.21-4.6-1.19-.6-2.38-1.2-3.57-1.81-17.8-8.92-36.7-16.5-56.6-18.8-2.79-.422-2.79-.422-5.81-1.39-5.59-1.66-11.4-1.82-17.2-2.21l-3.87-.26c-17.1-1.02-34.1-.057-51.2 1.39l-2.71.225c-4.63.438-8.58 1.26-13 2.84-2.76.671-5.54 1.23-8.31 1.81-14.7 3.2-28.7 7.73-42.6 13.4-2.04.808-4.1 1.57-6.16 2.32-3.63 1.35-7.06 2.98-10.5 4.74l-3.66 1.86c-.615.314-1.23.628-1.86.952-1.79.906-3.6 1.79-5.41 2.67-16.3 7.92-30.8 18-45 29.1-.572.444-1.14.888-1.73 1.34-3.48 2.74-6.61 5.68-9.71 8.84l-2.44 1.88c-2.75 2.28-4.89 4.74-7.16 7.47-1.69 2-3.55 3.8-5.4 5.65-20.1 20.7-35.6 49.5-46.1 76.1-.678 1.71-1.36 3.42-2.04 5.13l-.983 2.48c-.768 1.89-1.6 3.74-2.45 5.59-2.11 5.27-3.49 10.7-4.91 16.2l-.926 3.6c-1.94 7.72-3.64 15.4-5.01 23.3-.155.882-.311 1.76-.47 2.67-2.09 12.7-2.36 25.4-2.34 38.2v2.37c.011 10.3.25 20.5 1.06 30.8l.238 3.04c.44 4.84 1.2 9.01 2.89 13.6.628 2.6 1.23 5.2 1.81 7.81 2.03 8.85 4.51 17.5 7.19 26.2.278.908.557 1.82.844 2.75 1.68 5.27 3.82 10.2 6.16 15.2l.88 1.91c5.18 11.3 5.18 11.3 11.2 22.2 1.1 2.25 1.51 4.4 1.91 6.86l3 1c.917 1.83 1.82 3.67 2.68 5.53 2.14 4.02 4.95 7.54 7.71 11.1 1.61 2.32 1.61 2.32 1.61 4.32l3 1c.922 1.33 1.83 2.67 2.7 4.04 1.68 2.52 3.5 4.89 5.37 7.27.673.862 1.34 1.72 2.04 2.61 1.81 2.31 1.81 2.31 4.9 3.07 1.5 1.52 1.5 1.52 3 3.38 2.69 3.29 5.31 6.09 8.69 8.69l2.31 1.94v2l2.25.75c3 1.36 4.55 2.83 6.75 5.25 2.15 2.32 2.88 2.96 6 4v2l2 .625c2.56 1.17 4.25 2.24 6.44 3.94 5.36 4.14 11.1 7.72 16.8 11.3 1.59 1 3.17 2.02 4.74 3.05 57.1 36.3 125 45 191 30.4 20.3-4.67 40-11.5 58.4-21.4 1.8-.958 3.62-1.87 5.45-2.78 11.9-6.01 22.7-13.7 33.5-21.5 8.21-5.89 14.6-8.73 24.8-7.71 6.75 1.49 9.48 5.73 13.3 11.1 3.23 5.49 4.27 10.1 3.39 16.3-4.95 18.3-36.5 32.3-51.6 41.1-42.9 24.3-91.2 35.2-140 37.5l-2.32.11c-38.6 1.56-80-6.44-116-21.1-1.04-.426-1.04-.426-2.09-.86-22.3-9.24-43.7-20.6-62.9-35.1-.542-.406-1.09-.81-1.65-1.23-3.83-2.87-7.61-5.8-11.4-8.77l-2.93-2.3c-7.59-6.18-14.5-13-21.4-19.9-.711-.71-.711-.71-1.44-1.43-12.9-12.9-24.3-26.8-34.9-41.6-.525-.727-1.05-1.45-1.59-2.2-.48-.68-.96-1.36-1.45-2.06-.425-.6-.852-1.2-1.29-1.82-.91-1.66-.91-1.66-.91-4.66h-2c-3.12-5.59-6.23-11.2-9.27-16.8-1.26-2.32-2.54-4.62-3.83-6.92-5.71-10.3-10.1-20.8-14-31.9-.811-2.23-1.67-4.44-2.53-6.64-1.09-3.05-1.75-5.5-2-8.69l-.2-2.31-.112-1.69h-2l-.77-3.48c-.348-1.57-.695-3.14-1.04-4.71l-.55-2.49c-1.05-4.74-2.14-9.47-3.26-14.2-1.89-8.15-3.33-16.4-4.14-24.7-.152-1.57-.316-3.13-.492-4.69-.978-9.7-.894-19.4-.873-29.1.005-3.01 0-6.02-.007-9.03-.005-13.8.446-27 3.14-40.6.295-1.59.588-3.17.88-4.76 1.58-8.55 3.23-17.1 5.18-25.6.15-.662.3-1.32.454-2.01.951-4.01 2.21-7.78 3.7-11.6.811-2.14 1.54-4.29 2.26-6.46 8.73-26.2 21-51.4 37.5-73.6l2.16-2.99c5.17-7.05 10.7-13.8 16.4-20.4.998-1.15 1.99-2.31 2.98-3.47 4.81-5.59 9.92-10.8 15.1-16.1l2.55-2.59c.813-.815 1.63-1.63 2.46-2.47.73-.735 1.46-1.47 2.21-2.23 1.98-1.75 3.72-2.72 6.09-3.84 1.69-1.64 3.35-3.31 5-5 1.65-1.36 3.31-2.69 5-4l2.19-1.81c7.51-5.84 15.5-11 23.5-16.1 2.13-1.36 4.24-2.76 6.32-4.18 3.02-1.96 6.05-3.55 9.29-5.12 4.76-2.33 9.46-4.75 14.1-7.26 7.37-3.97 14.8-7.47 22.6-10.6l2.66-1.16c12.2-5.34 25.2-9.86 38.2-12.7l2.24-.49c.778-.172 1.56-.342 2.36-.518 5.34-1.17 10.7-2.4 15.9-3.81 4.63-1.19 9.13-1.79 13.9-2.1 3.25-.257 6.44-.743 9.67-1.21 11.7-1.68 23.3-2.32 35.1-2.26z"/><path fill="#E4B347" d="M331 132c4.46 3.13 7.68 6.02 9.94 11.1.875 5.63.554 11.4 0 17l-1 1c-.337 2.02-.614 4.05-.867 6.08l-.49 3.91-.518 4.26-.541 4.38c-1.14 9.28-2.15 18.6-3.08 27.9-.997 9.93-2.09 19.8-3.3 29.7-.172 1.4-.342 2.81-.51 4.22-.235 1.96-.479 3.92-.724 5.88l-.418 3.39c-.593 3.55-1.5 6.83-2.55 10.3h2v2c.557.268 1.11.536 1.69.812 2.52 1.3 4.95 2.61 7.31 4.19v2l3 1v2h2c4.86 6.82 8.01 13.9 10 22l1 3c.753 9.28.508 16.8-3.81 25.3-1.54 3.55-2.31 5.83-2.19 9.75 2.01 3.14 4.58 5.61 7.25 8.19l4.42 4.48c.733.73 1.47 1.46 2.22 2.21 2.94 2.95 5.79 5.99 8.61 9.05.877.937 1.75 1.87 2.66 2.84 1.84 2.22 1.84 2.22 1.84 4.22l1.79.766c2.47 1.38 3.84 2.82 5.65 4.98.605.709 1.21 1.42 1.83 2.15 1.06 1.28 2.1 2.58 3.12 3.89 2.57 3.3 4.56 5.05 8.61 6.21v-3l-1.94-.312-2.06-.688-1-3h2v-2l6 1-5-6 1-1c-.321-2.34-.656-4.67-1-7-.036-2-.049-4 0-6h-2l-2-2h-4c-1.33-3.99-.33-6.61.625-10.6.584-2.52.584-2.52-.625-5.38v-2c-3.47.99-3.47.99-7 2l-1-2c1.49-1.98 1.49-1.98 3-4l1 2c2.47-.344 2.47-.344 5-1l1-2h2l2-2c.336 1.29.669 2.58 1 3.88l.562 2.18c.438 1.95.438 1.95.438 3.95h7l.586 6.05c.278 2.17.278 2.17 2.41 3.95v4l2-3 5 1 2-6-3-1v-2l-2-1-1-2-1.88-.438c-2.57-.681-3.5-1.48-5.12-3.56-.688-2.19-.688-2.19-1-4 1.49-.99 1.49-.99 3-2 2.39-3.83 2.39-3.83 2.88-8.19-.996-2.06-2.23-3.24-3.88-4.81l-1-3c-2.02-.733-2.02-.733-4-1l-1-5-3-1v-2l-4-2 1-3c1.31.282 2.63.576 3.94.875l2.21.492c1.85.633 1.85.633 2.85 2.63l2 1 1-11h2v2l8-2-.473-2.12-.59-2.76c-.197-.905-.394-1.81-.598-2.74-.34-2.38-.34-2.38.66-4.38h2v-4h2l1-5 4 2v2h2v7l2.88-1c3.12-1 3.12-1 5.12-1 .027 1.77.046 3.54.063 5.31l.035 2.99c-.098 2.7-.098 2.7-1.1 5.7l3-1-1-2 3.38.5c3.35.546 3.35.546 5.62.5l-1-2h-3c-3-3.33-3-3.33-3-6l-2-1 6-3v2l6-1 1 2c2.53.656 2.53.656 5 1l-1 2h-3c1 3.79 1.81 6.72 4 10v3l3 1 .438-3.06.562-3.94.5-3.56c.459-3.15.964-6.3 1.5-9.44h4l-.625-2.31c-.375-2.69-.375-2.69 1.62-5.69 2.63-.688 2.63-.688 5-1v-8l5 2v5l6 1 .62 2.55.817 3.32c.4 1.64.4 1.64.809 3.3.633 2.75.633 2.75 1.75 4.82h2l1 4h-3l-1 2h-8l-1-4h-5l2 2h-5v-2l-2-1 .625 1.81c.375 2.19.375 2.19-1.62 5.19l2 1-1 5 2 1c1 4 1 4 1 6l.562 2.5.438 2.5c-1 1-1 1-4.06 1.06l-2.94-.063 3 1v3c3.04.083 5.07-.023 8-1l-1 7 2-2 .875 2.38c.974 2.72.974 2.72 3.12 4.62l3 1 2-1 .938 2.38c.99 2.55.99 2.55 2.06 4.62l-3 2c-2.28 2.82-2.28 2.82-2 6h-2v2h2v8h-4c-1.08 2.17-1.81 4.32-2.56 6.62l-.816 2.48c-.205.626-.41 1.25-.621 1.9-.784-.04-1.57-.082-2.38-.125-2.79-.162-2.79-.162-4.62 2.12v-2h-2l-1 2-3-1v-2l-2-1c.516-.37 1.03-.742 1.56-1.12 1.8-1.9 1.8-1.9 1.06-5l-.625-2.88 1-1-2-1v2h-5l-1-3-2-1 1 3c-1 1-1 1-3.56 1.06l-2.44-.062v-5c1.45-.371 1.45-.371 2.94-.75 1.52-.619 1.52-.619 3.06-1.25.752-1.93.752-1.93 1-4 1.88-2.67 2.92-2.98 6.19-3.69l2.81-.312v2l4-1h-3c-1.02-2.76-1.06-3.84-.063-6.69l1.06-2.31v-1c-2.36-2.36-3.78-2.49-7-3l2-1-.562-2.38c-.438-2.62-.438-2.62.562-4.62l-3 1-2-4-1 10 3 1-1.94.312-2.06.688-1 3h-3l-2 1c.324 1.67.66 3.33 1 5 .124.722.248 1.44.375 2.19.555 2.2.555 2.2 3.62 3.81h-3l1 3-3 1-2-4v4c-3.23 2.15-4.28 2.2-8 2l-2-5h-3l-1-2v6l3-1v6l-7-4 .063 2.38c-.063 2.62-.063 2.62-1.06 4.62l5-2 2 2c-.536 3.54-.536 3.54-2 5-.043 2.68-.047 5.33 0 8v3h-2l2 2 2-1 3 2h-2v2l7-1v3h3c.433 1.42.433 1.42.875 2.88.893 3.18.893 3.18 3.12 5.12h3l1 2c-2 3-2 3-5 5l-1 2-2 1 5 1-2 5-3-1v2h3c.224 1.73.428 3.46.625 5.19l.352 2.92c.025 3.14-.633 5.09-1.98 7.89h-3v4l-1 1 3 2c.188 3.13.188 3.13 0 6l-4 1 3 2-1.94.812c-2.39 1.07-2.39 1.07-3.06 4.19l-3.19 1.19c-4.24 1.61-5.84 4.36-8.33 8.01-2.09 2.54-4.35 3.07-7.48 3.8l-1 2 3 1-3.19.875c-3.66.999-3.66.999-6.44 2.25-2.61.961-4.62 1.03-7.38.875l1-4-1.94.586c-1.79.54-3.59 1.08-5.39 1.61-2.17.649-4.33 1.32-6.48 1.99-2.9.739-5.22.992-8.19.812l-1-2 6-1v-5h-7v2c-2 2-2 2-4.62 2.12l-2.38-.125-1-5c-1.09.495-2.19.99-3.31 1.5-3.69 1.5-3.69 1.5-6.69 1.5-.248-.578-.495-1.16-.75-1.75-1.42-2.55-3.13-4.27-5.25-6.25l-1 2v-5l-9-2-1-4h6l-6-2 4-3-1-3c.938-3.19.938-3.19 2-6l-5-1v2h-2l-1-2-4 4-2-2v-3h2v-8l-5 1 1-3-3 1-2-2 4-2v-1l-2.94-.938c-3.06-1.06-3.06-1.06-4.06-2.06-.041-2.33-.043-4.67 0-7h-3l-1 2-3-3v2c-5.75 1.12-5.75 1.12-8 0v-2l-2.81.125c-3.19-.125-3.19-.125-6.19-2.12l-2-1 1-1-2-2c2.65-1.46 3.89-2 7-2l1 2h5l-1-5-12-2-1 2v-2l-2-1-1-4-8 2 1 4h-12v-2h-4l1 3-2 1-2-2h2v-2c-4.48.447-4.48.447-8 3h-1v3l-4 1-1.44-1.94c-1.4-1.95-1.4-1.95-2.56-3.06-.683-1.33-1.35-2.66-2-4h-3l-2 2c-3.64 2.43-5.71 2.16-10 2l-.438 1.94c-.723 2.65-1.56 3.06-3.56 5.06h-3v6l-5 2 4 2-1 1 2 2h-2v4h-2c-1.16 2.95-1.16 2.95-1 6l-2 1v5c2.47-1.15 4.05-2.05 6-4l3 1 1-2 3.81.188c3.36.049 3.36.049 6.19-1.69l1-1.5 3 1-1 2 2 2c-.25 2.56-.25 2.56-1 5l-2 1h4l-1-5h4l1-3h3v4l2.5 2.5c2.5 2.5 2.5 2.5 2.5 6.5l3-1v-7l9 2c-1.23 3.69-2.94 4.72-6 7l2 2-1 3h-3v2h2v2h2l1-2c1.35 2.71 1.07 5.01 1 8h2c-1 2-1 2-2 3h3v2h2v2h2v2h-4l-3 6-6-2-.184 2.08-.254 2.73-.246 2.71c-.316 2.48-.316 2.48-1.32 5.48h-2v-4c-3.77-.185-3.77-.185-6.38.688-3.6.428-5.56-.904-8.62-2.69l-1 3c-2.5-.835-4.67-1.79-7-3h3c-.275-3.82-.275-3.82-2-7l-3-1 4-5c-3.06-2.62-3.73-3-8-3v3l-3 2 3 2-2.31.375c-2.89.506-2.89.506-5.69 2.62l-2-4c-1.89 2.39-3.02 4.07-4 7h-2v-2h-6v-3c-1.72.573-3.43 1.17-5.12 1.81-3.87.252-6.3-1.16-9.73-2.84-2.19-1.11-2.19-1.11-4.96-1.48-2.97-.678-4.1-2.34-6.19-4.5l-2.62-.875c-2.38-1.12-2.38-1.12-3.69-4.25l-.688-2.88c1.09-.433 2.19-.866 3.31-1.31 2.78-1.18 4.75-2.3 6.69-4.69h-2v-4h-2l-1 3-2-3h-4l-1-2-6 1-1-6h2v2l4-1v-3l6-1-.438-2c-.685-3.66-1.12-7.31-1.56-11-.911 3.07-1.09 5.8-1 9-4.29 1.27-7.55 1.51-11.8 0-2.19-2-2.19-2-2.5-3.91 0-2.03.152-4.06.312-6.09v-2l-6-2v2l-6 3v7c-3.29-2.19-3.59-2.85-4.75-6.44l-.797-2.37c-.453-2.19-.453-2.19.547-5.19h-3v-8h-2v2h-5c-1.12-3.75-1.12-3.75 0-6l-2-1 1-2c-1.11.186-2.23.371-3.38.562-3.62.438-3.62.438-5.62-.562v-3l3-1c1.69-2 1.69-2 3-4l-2-4 2-2h2c-.516-.557-1.03-1.11-1.56-1.69-1.44-2.31-1.44-2.31-1.31-4.88.972-2.71 1.67-3.63 3.88-5.44 2.64-1.06 2.64-1.06 5.69-2 4.09-1.27 8.09-2.67 12.1-4.19 4.19-1.53 8.45-2.84 12.7-4.18 1.46-.463 1.46-.463 2.96-.936 5.38-1.7 10.8-3.39 16.2-5.06 8.72-2.71 17.4-5.52 26.1-8.33 5.64-1.82 11.3-3.61 17-5.34 6.77-2.07 13.5-4.34 20.1-6.66l2.65-.902 2.35-.812c2.18-.579 2.18-.579 6.18-.579v-2l-3-1c-1.62-3.23-2.39-6.45-3-10h3l1-7h3l.375-2.31c.625-2.69.625-2.69 2.62-5.69 1.25-2.98 2.42-5.98 3.59-8.99 1.47-3.12 3.18-5.39 5.41-8.01.472-.646.944-1.29 1.43-1.96 6.28-8.06 15.9-13.1 25.6-16 2.11-9.03 2.88-18.1 3.75-27.3.41-4.31.863-8.61 1.32-12.9.079-.761.159-1.52.24-2.31.742-7.06 1.65-14.1 2.56-21.1l.49-3.78c.35-2.7.704-5.4 1.06-8.1.858-6.58 1.68-13.2 2.37-19.7.12-1.12.243-2.24.368-3.4.222-2.09.432-4.18.628-6.27.804-7.44 2.5-13.9 8.22-19 5.22-2.83 10.5-2.76 16.1-1.06z"/><path fill="#205597" d="M311-.261c2.67.01 5.34 0 8.01-.013 16.1-.012 32 1.24 47.9 4.27 1.18.215 2.35.431 3.57.652 10.7 2.03 21.1 4.65 31.3 8.53 2.31.872 4.63 1.71 6.96 2.54.813.293 1.63.585 2.46.887 1.67.601 3.35 1.2 5.02 1.79 4.08 1.48 7.3 2.88 10.7 5.61 1.75.863 3.51 1.72 5.28 2.55 6.7 3.13 12.9 6.65 18.8 11 .602.434 1.2.87 1.83 1.32 6.36 4.78 13.1 11.2 14.4 19.4.406 6.84-1.41 12.2-5.35 17.8-4.82 4.89-10.5 6.6-17.2 7.38-8.78-.878-15.5-4.6-22.5-9.77-2.61-1.89-5.28-3.26-8.21-4.6-1.19-.6-2.38-1.2-3.57-1.81-17.8-8.92-36.7-16.5-56.6-18.8-2.79-.422-2.79-.422-5.81-1.39-5.59-1.66-11.4-1.82-17.2-2.21l-3.87-.26c-17.1-1.02-34.1-.057-51.2 1.39l-2.71.225c-4.63.438-8.58 1.26-13 2.84-2.76.671-5.54 1.23-8.31 1.81-14.7 3.2-28.7 7.73-42.6 13.4-2.04.808-4.1 1.57-6.16 2.32-3.63 1.35-7.06 2.98-10.5 4.74l-3.66 1.86c-.615.314-1.23.628-1.86.952-1.79.906-3.6 1.79-5.41 2.67-16.3 7.92-30.8 18-45 29.1-.572.444-1.14.888-1.73 1.34-3.48 2.74-6.61 5.68-9.71 8.84l-2.44 1.88c-2.75 2.28-4.89 4.74-7.16 7.47-1.69 2-3.55 3.8-5.4 5.65-20 20.6-35.5 49.4-46 75.9l-1.05 2.64c-2.43 6.12-4.78 12.3-6.95 18.5h-1l-.438-3.44c-.174-3.37-.174-3.37-1.56-4.56-.262-1.95-.46-3.91-.625-5.88l-.289-3.24c-.086-2.88-.086-2.88.914-5.88h2v-10a85.44 85.44 0 0 0-7-2v2h-2l-.25 2.88c-.75 3.12-.75 3.12-2.81 4.5l-1.94.625v4h-2l-1 3c-2.88-.25-2.88-.25-6-1a88.747 88.747 0 0 1-2-4c-2.56-.812-2.56-.812-5-1l-1 7 3 1-5 2-3-6-3 3c-.52-7.03 1.13-11.6 4-18l1.77-4.08c8.65-19.9 18.3-39.4 31.2-56.9l2.04-2.81c5.22-7.1 10.8-13.9 16.5-20.5.998-1.15 1.99-2.31 2.98-3.47 4.81-5.59 9.92-10.8 15.1-16.1l2.55-2.59c.813-.815 1.63-1.63 2.46-2.47.73-.735 1.46-1.47 2.21-2.23 1.98-1.75 3.72-2.72 6.09-3.84 1.69-1.64 3.35-3.31 5-5 1.65-1.36 3.31-2.69 5-4l2.19-1.81c7.51-5.84 15.5-11 23.5-16.1 2.13-1.36 4.24-2.76 6.32-4.18 3.02-1.96 6.05-3.55 9.29-5.12 4.76-2.33 9.46-4.75 14.1-7.26 7.37-3.97 14.8-7.47 22.6-10.6l2.66-1.16c12.2-5.34 25.2-9.86 38.2-12.7l2.24-.49c.778-.172 1.56-.342 2.36-.518 5.34-1.17 10.7-2.4 15.9-3.81 4.63-1.19 9.13-1.79 13.9-2.1 3.25-.257 6.44-.743 9.67-1.21 11.7-1.68 23.3-2.32 35.1-2.26z"/><path fill="#E1B346" d="M341 106c2.18.343 4.37.63 6.56.875 6.83.895 13 2.7 19.4 5.12v2l-3.25-.063c-2.94.05-4.98.345-7.75 1.06l-2-1v2l1.71.665c2.26.975 4.27 1.93 6.29 3.34 1 3.25 1 3.25 1 6l-2.38.438c-2.59.44-2.59.44-4.62 1.56l-1 3h-5l-.312-1.94-.688-2.06c-2.85-1.24-2.85-1.24-5.25-.5-3.44.626-6.32.105-9.75-.5v-2l-3-1c-.688-2.06-.688-2.06-1-4-3.65-.972-6.4-.981-10.1-.5l-3.88.5-1-3-2-1v5h-4c3.33 1.11 5.62.845 9 0l-1 3-9 1-1 7-3-1-1-2-2 1 .562-2.44.438-2.56c-1.05-1.16-1.05-1.16-3-2l1 3c-.938 2.69-.938 2.69-2 5l-4-2 1-2h-3l1 5h-2l1 4-6.15.586-1.85.414-1 2h-3l-1-1c-2.48.637-2.48.637-5 2-1.2 2.32-1.2 2.32-1.88 5-1.64 4.7-1.64 4.7-3.93 6.1-1.95.523-1.95.523-5.2.898l-1-2-4 2 3 1-1 2h-3l-2 7h-3v5l-3-1-1 8-1.88.312c-2.49.563-2.49.563-4.12 3.69h-4v2h-2v4l2 1c.043 1.67.04 3.33 0 5l-1 1c-1.77 3.71-2.25 6.65-2.19 10.8l.02 2.92c-.09 2.29-.09 2.29 1.17 3.33l1-3h2l1-2 4 2-2 5-4-1 2 8-2.44.875c-2.7.858-2.7.858-3.56 3.12-4.09.186-6.41-.151-10-2-2.32-.387-4.66-.73-7-1l1-4v2c2.51-.703 2.51-.703 5-2 1.32-2.93 1.04-3.88 0-7h-4l-1 6h-13c1.48.99 1.48.99 3 2l-1 2h-2l-1 4h-3v5l9 2 1-4c2.68.37 3.87.877 5.88 2.75 1.12 2.25 1.12 2.25.311 5-.392.742-.784 1.49-1.19 2.25 1.49.99 1.49.99 3 2l-2 5 4 1-1 5-3 1c-1.72 3.5-1.72 3.5-3 7h2l-1 2c-2.06.625-2.06.625-4 1v-8h-2l.684 6.15c.135 1.86.135 1.86 1.32 2.85l2 1c0 3.11-.174 5.11-1 8h7l1 2-10 2-1 7h3v3c-3.72.2-4.77.152-8-2l-3 1c-1.77-4.71-2.49-9.03-3-14l-5-2 1-2-2-1-1 10h-2v3c-2.91 1.26-4.8 2-8 2-.369-4.55-.369-4.55 1.44-6.75l1.56-1.25c1.3-1.07 1.3-1.07 1.06-3.56l-.062-2.44h4l1-8-1 1c-1.67.04-3.33.042-5 0l-1 2c-2.81 4.22-2.81 4.22-5 6l-2.56.375-2.44.625c-1.16 2.47-1.16 2.47-2 5l-3 1c-1.21 2-1.21 2-2 4h-3l-1 2c-2.06.625-2.06.625-4 1l-1-3-5 1 .188-2.38-.188-2.62-3-2v-4h-3c-.454-.474-.908-.95-1.38-1.44-2.13-2.05-3.72-2.27-6.62-2.56l-3 1c-1.23 3.51-1.23 3.51-2 7-2.76-.523-5.33-1.11-8-2v3l-9-2c-2.05 3.76-2.05 3.76-2.81 7.12l-1.19 2.88-2.5.75-2.5 1.25c-1.08 3.28-1.58 6.58-2 10h-2c-1.31-6.47-.271-11.6 1-18l.411-2.17c2.09-11 4.75-21.3 8.59-31.8l1.11-3.22c3.14-8.73 7.38-16.7 11.8-24.8a272.1 272.1 0 0 0 2.68-5.07c3.54-6.77 7.74-12.8 12.4-18.9.755-1.04 1.51-2.07 2.29-3.14 12.4-16.8 27.8-30.8 44.7-42.9.615-.45 1.23-.897 1.86-1.36 18.2-13.2 40.7-22.5 62.4-28.1l2.51-.65c1.66-.425 3.31-.849 4.97-1.27 1.94-.497 3.88-1.01 5.82-1.53 20.9-5.31 55.3-8.22 75.4-.046zM214 265l2 1-2 1v-2z"/><path fill="#FDFDFD" d="M331 132c4.46 3.13 7.68 6.02 9.94 11.1.875 5.63.554 11.4 0 17l-1 1c-.337 2.02-.614 4.05-.867 6.08l-.49 3.91-.518 4.26-.541 4.38c-1.14 9.28-2.15 18.6-3.08 27.9-.997 9.93-2.09 19.8-3.3 29.7-.172 1.4-.342 2.81-.51 4.22-.235 1.96-.479 3.92-.724 5.88l-.418 3.39c-.593 3.55-1.5 6.83-2.55 10.3h2v2c.557.268 1.11.536 1.69.812 2.52 1.3 4.95 2.61 7.31 4.19v2l3 1v2h2c4.86 6.82 8.01 13.9 10 22l1 3c.753 9.28.508 16.8-3.81 25.3-1.54 3.55-2.31 5.83-2.19 9.75 2.01 3.14 4.58 5.61 7.25 8.19l4.42 4.48c1.1 1.1 1.1 1.1 2.22 2.21 2.94 2.95 5.79 5.99 8.61 9.05.877.937 1.75 1.87 2.66 2.84 1.84 2.22 1.84 2.22 1.84 4.22l1.79.766c2.47 1.38 3.84 2.82 5.65 4.98.605.713 1.21 1.43 1.83 2.16 1.45 1.76 2.91 3.52 4.36 5.28 2.29 2.8 2.29 2.8 4.69 5.12 2.33 2.33 4.51 4.72 6.69 7.19 2.14 2.43 4.27 4.77 6.56 7.06 10.9 10.9 10.9 10.9 11.8 19.9-.574 6.43-3.49 10.4-8.31 14.5-3.96 2.49-7.87 2.3-12.4 1.73-7.3-2.02-12.4-8.28-17.1-13.9-2.04-2.43-4.27-4.62-6.54-6.84-4.55-4.45-8.93-8.97-13.1-13.8-2.27-2.6-4.59-5.15-6.91-7.7-3.56-3.9-7.08-7.84-10.5-11.8-1.46-1.69-1.46-1.69-3.16-3.25-1.31-1.41-1.31-1.41-1.31-3.41l-1.8-.777c-2.41-1.34-3.69-2.67-5.45-4.79l-1.89-2.13c-1.86-2.31-1.86-2.31-3.32-4.84-1.99-3.07-3.35-4.62-6.54-6.47-4.56-.667-9.11-.487-13.7-.195-12.8.788-24.4-4.21-34.4-12.1-3.47-3.2-6.2-6.86-8.88-10.7-.414-.576-.828-1.15-1.25-1.75-6.25-9.62-5.86-23.5-4.06-34.4 2.85-12.3 10.3-22.4 20.7-29.4 4-2.49 7.54-4.46 12.1-5.65 3.49-1.31 3.49-1.31 4.37-3.45.629-2.77.89-5.47 1.13-8.3.156-1.48.315-2.96.477-4.44.457-4.3.866-8.59 1.27-12.9.411-4.31.863-8.61 1.32-12.9.08-.761.159-1.52.24-2.31.742-7.06 1.65-14.1 2.56-21.1.162-1.25.324-2.49.49-3.78.351-2.7.704-5.4 1.06-8.1.858-6.58 1.68-13.2 2.37-19.7l.368-3.4c.222-2.09.432-4.18.628-6.27.804-7.44 2.5-13.9 8.22-19 5.22-2.83 10.5-2.76 16.1-1.06z"/><path fill="#1E5596" d="M128 497c3.33.555 6.1 1.24 9 3l1 2 3 1v2l2 .625c2.56 1.17 4.25 2.24 6.44 3.94 5.36 4.14 11.1 7.72 16.8 11.3 1.59 1 3.17 2.02 4.74 3.05 57.1 36.3 125 45 191 30.4 20.3-4.67 40-11.5 58.4-21.4 1.8-.958 3.62-1.87 5.45-2.78 11.9-6.01 22.7-13.7 33.5-21.5 8.21-5.89 14.6-8.73 24.8-7.71 6.75 1.49 9.48 5.73 13.3 11.1 3.23 5.49 4.27 10.1 3.39 16.3-4.1 15.1-26.5 25.7-38.9 33.4-1.58.985-3.15 1.99-4.71 3-5.37 3.3-5.37 3.3-9.17 2.45-.639-.433-1.28-.866-1.94-1.31l2-5c-5.86-2.2-9.04-1.88-15 0v5l-2.52-.141-3.29-.109-3.27-.141c-3.04.07-3.04.07-4.59 2.4-.44.657-.879 1.31-1.33 1.99-3.5.125-3.5.125-7 0-1.48.99-1.48.99-3 2l.063-2.94c.294-2.94.294-2.94-1.06-4.06v5l-1-2-2 5c-3.51 0-6.56-.375-10-1l3-1v-2h-5v2c-4.75.125-4.75.125-7-1-1.81-.096-3.62-.13-5.44-.125l-2.93-.008c-2.74.02-2.74.02-5.63 1.13-2 .04-4 .045-6 0v2c-.638.121-1.28.242-1.93.367l-2.5.508-2.5.492c-1.02.313-1.02.313-2.07.633l-1 2v-2l-1.67.496c-2.59.562-4.93.601-7.58.566l-2.7-.027-2.05-.035v3h-2v-2h-14v2l2 1-2 2-2 3h-4v-2h-3l-1 2-3 1-1 2h-2c-.29.639-.578 1.28-.875 1.94-1.12 2.06-1.12 2.06-3.12 3.06l3 1-8 1v-7l-8-1 1.5 1.25c1.5 1.75 1.5 1.75 1.5 5.75h-9v-3h-6l1-6h-5l1-9h3l1 2v-3l-3-1-1-2v3l-2-1v-1c-5.08-.113-5.08-.113-10 1l-2-1-1 2-1-2 1-2c-5.94.33-11.9.66-18 1v-2l1.94-.375 2.06-.625 1-2-2.56.562c-3.75.477-6.75.233-10.4-.562l-1-2c-1.66-.35-3.33-.682-5-1-1.49-.99-1.49-.99-3-2l-2 2c-5.33.333-5.33.333-8-1l-2-3-1 2c-3.25 1.28-5.67.832-9 0v-2l-2-1v-4h-12v-2c-.804-.29-1.61-.577-2.44-.875-2.56-1.12-2.56-1.12-3.56-3.12l1-2h-5l1-3h-2v4c-3 2-3 2-7 2l-1-2h-2l-1.44 1.5c-1.56 1.5-1.56 1.5-4.56 1.5l-.688-2.38c-1.09-2.84-1.09-2.84-3.94-3.94l-2.38-.688v-3l-2.62.312c-4.74-.44-6.14-1.85-9.38-5.31-.375-2.81-.375-2.81 0-5 1.49.495 1.49.495 3 1v-2h-4c-.495-1.49-.495-1.49-1-3l-2 1-1.25-1.5c-1.87-1.93-1.87-1.93-5.75-1.5l1-8-2-1 1-4v2l2-2-3-6h-5v-9z"/><path fill="#DDB145" d="m1222 213 3.81-.037c15.4-.024 15.4-.024 20.5 3.78 3.65 4.87 4.74 8.72 4.36 14.8-.716 4.18-1.71 6.32-4.45 9.62-6.42 2.58-13.1 2.44-19.9 2.62l-3.52.117c-2.85.094-5.7.179-8.54.258-.993 2.98-1.13 4.96-1.13 8.07l-.004 2.96.012 3.09-.012 3.11.004 2.96.003 2.72c-.102 2.07-.102 2.07 1.13 3.09 2.08.122 4.16.18 6.24.21l3.93.087c2.06.04 4.11.077 6.17.104 10.8.152 21.9.482 31.2 6.66 3.23 2.13 3.23 2.13 6.63 3.95 2.47 1.31 3.88 3.26 5.59 5.43 1.39 1.76 1.39 1.76 3.72 3.81 11.2 12 15.3 27.3 14.9 43.3-.838 16.1-8.37 30-19.9 41.1-15.7 12.9-34.6 13.9-54 13.7-2.78-.024-5.55-.02-8.32-.014-1.78-.006-3.56-.013-5.33-.022l-2.49.003c-5.09-.063-8.28-.399-12-3.93-3.42-4.27-5.22-7.51-4.82-13.1.96-4.21 2.82-7.95 5.53-11.3 2.86-1.73 4.99-2.25 8.32-2.26l2.56-.02 2.75.002 5.83-.062c3.05-.023 6.09-.04 9.14-.045 19.9.202 19.9.202 36.7-9.59 5.74-6.76 7.47-13.1 7.08-21.9-.829-7.26-3.19-13.8-8.36-19.1-4.82-3.64-9.21-6.11-15.3-6.14l-2.65-.022-2.86-.012c-2-.023-4.01-.048-6.01-.073-3.16-.035-6.31-.064-9.47-.077-3.05-.016-6.1-.056-9.15-.1l-2.83.005c-7.64-.14-12.8-2.15-18.6-7.02-5.35-7.11-3.2-20.7-3.08-29.2l.043-3.46c.033-2.39.07-4.78.11-7.16.055-3.65.083-7.29.111-10.9.036-2.33.073-4.67.111-7l.013-3.28c.167-7.4 1.15-12 6.52-17.4 2.72-1.42 4.87-1.61 7.94-1.78l3.49-.194c6.17-.218 12.3-.315 18.5-.318z"/><path fill="#205595" d="M79 439h3c1.64 2.22 3.08 4.39 4.5 6.75.78 1.27 1.56 2.53 2.34 3.8.367.6.735 1.2 1.11 1.82 1.11 1.79 1.11 1.79 2.82 3.96 1.22 1.67 1.22 1.67 1.22 3.67l3 1c.921 1.33 1.83 2.67 2.7 4.04 1.68 2.52 3.5 4.89 5.37 7.27 1.01 1.29 1.01 1.29 2.04 2.61 1.81 2.31 1.81 2.31 4.9 3.07 1.5 1.52 1.5 1.52 3 3.38 2.69 3.29 5.31 6.09 8.69 8.69.763.639 1.53 1.28 2.31 1.94v2l2.44.875c2.56 1.12 2.56 1.12 3.56 3.12l-3 2c-.736 3.57-.736 3.57-1 7h2l1-2c3.92 2.35 4.84 4.64 6 9l-3 1-1 2h5l-3 1v7l4 1v2h2l2-2 1 5h4v2l-2 1c.122 1.91.122 1.91 1 4 3.21 2.4 6.05 3.44 10 4l1 3 5 1 1 6h3l1-2c2.06-1.12 2.06-1.12 4-2l1 3c3.46-.99 3.46-.99 7-2v-4h2l1 2c1.49.495 1.49.495 3 1l1 3c1.33 1.01 2.66 2.01 4 3v2l3.69-.5c3.13-.395 6.15-.599 9.31-.5l-.062 2.31c-.067 2.79-.067 2.79 1.06 5.69l3-1 3 1 1-2c1.88-.812 1.88-.812 4-1 1.75 1.31 1.75 1.31 3 3v2c4.48-.447 4.48-.447 8-3h2c.99 1.49.99 1.49 2 3 2.56.73 2.56.73 5 1v2l1.7-.527c2.54-.523 4.48-.375 7.05-.035l2.42.309 1.83.254-1 3h-4c1.21 1.44 1.21 1.44 4.82 1.1 1.58-.007 3.16-.019 4.75-.035l2.44-.014c2-.012 4-.03 5.99-.049v3l2.56-1c3.71-1.08 6.59-1.37 10.4-1l2 3v-3c2.75 1.38 3.51 3.37 5 6l-4 1 2-1v-2h-3v8l4 1c.562 1.94.562 1.94 1 4l-1 1h6l-1 4h9c-1.58-3.68-1.58-3.68-3-5v-2l8 1v2l2 1-2 3c2.47-.344 2.47-.344 5-1l1-2c1.71-2.83 2.44-3.84 5.69-4.75l2.31-.25v-5l2 2h3v2c2.54-.547 2.54-.547 5-2 .898-3.05.898-3.05 1-6h8l1-2v2l3-1 2 1v2h2l-1-3c1-1 1-1 4.06-1.03l3.94.09c5.97.085 11.2-.447 17-2.06v-2l8-1v-1h14v2h5v-2h5l1 3 2 1 1-2h3v-3h2l1-3 2 1v5l3-2c2-.04 4-.044 6 0l1-1-2-2c1.56-.17 3.12-.336 4.69-.5l2.64-.281c2.57-.21 5.1-.256 7.68-.22l.23-1.89c.77-2.11.77-2.11 2.7-3.2.788-.24 1.58-.481 2.39-.73.78-.253 1.56-.507 2.36-.77 2.48-.445 3.96-.213 6.32.583v2h2v4l2 2c-3.2 3.62-6.77 5.68-11.1 7.75-.702.343-1.4.686-2.13 1.04-40.5 19.5-83 29.1-128 31.2l-2.32.109c-38.6 1.56-80-6.44-116-21.1-.691-.283-1.38-.567-2.09-.86-15.2-6.31-29.7-13.8-43.9-22.1v-3h-2l1-4 5-1v-2l4 1-1-6h-2l-1 2-2-1-3 1 1 3c-1.49-.494-1.49-.494-3-1l1-13-7-2-2 2c-2.62-.374-2.62-.374-5-1-1.42-3.82-2.24-6.91-2-11l-1 5-2-1 1-7h-2v-3h-6l-.621-1.68c-.27-.723-.54-1.45-.816-2.2l-.81-2.18c-.732-1.98-.732-1.98-1.75-3.95l2-2h2l1-2h2v-2h-4l-.187-2.88-.812-3.12c-1.65-.701-3.32-1.37-5-2-.812-2.62-.812-2.62-1-5l-5-1c-.688-1.81-.688-1.81-1-4 1.19-1.81 1.19-1.81 3-3 2.19.313 2.19.313 4 1v-2l-2.94-.75c-1.52-.618-1.52-.618-3.06-1.25-.75-2-.75-2-1-4-1.99-2.09-1.99-2.09-4.5-3.88-2.45-2.08-3.15-3.33-4.5-6.12-.681-.494-1.36-.99-2.06-1.5-2.34-1.81-2.34-2.69-2.94-5.5l-1.5-2c-1.6-2.13-1.97-3.42-2.5-6-.804-3.16-.804-3.16-2-6l-3-1-1-6z"/><path fill="#E0B54A" d="M1405 273c1.55.835 1.55.835 3.12 1.69 9.26 7.45 16.1 18.5 20.9 29.3.756 1.63.756 1.63 1.53 3.29 2.2 5.94 1.97 12 2.02 18.3l.062 3.93c.042 2.73.074 5.47.1 8.2.032 3.48.081 6.96.138 10.4.052 3.35.095 6.7.138 10.1l.053 3.74c.16 18.1.16 18.1-2.91 23.2-4.58 2.75-8.9 2.46-14.1 1.88l-2-1v-2c-1.48-.495-1.48-.495-3-1-2.88-3.75-3.36-6.51-3.29-11.2l.03-3.51.075-3.63.041-3.69c.036-3 .085-6 .146-9-5.48.095-11 .201-16.4.317-1.86.038-3.72.073-5.57.104-18.7-.333-18.7-.333-35.9 5.58-4.87 2.94-4.87 2.94-7.75 3.88-2.47.911-2.47.911-3.34 3.21l-.965 2.92c-1.4 2.93-2.93 5.81-4.44 8.69l-1.2 2.34-1.17 2.24c-.349.67-.697 1.34-1.06 2.03-1.14 1.71-1.14 1.71-4.14 3.71-4.59.826-9.04 1.03-13.2-1.18-2.77-2.4-4.5-4.6-5.26-8.23-.46-6.71-.604-13.4-.484-20.1l.05-3.21c.038-2.23.078-4.45.121-6.68.063-3.36.104-6.72.145-10.1.331-20.5 2.42-36.1 15.7-52.6.616-.819 1.23-1.64 1.87-2.48 19.8-23.4 55.4-25.1 80.1-9.52zm-56 21c-1.64.835-1.64.835-3.31 1.69-9.25 7.96-13.5 18-14.6 29.9-.096 4.49.408 8.93.949 13.4 3.21-1.36 6.4-2.7 9.53-4.24.898-.436 1.8-.871 2.72-1.32.83-.414 1.66-.828 2.52-1.25 8.33-3.05 17-3.5 25.8-3.6l3.18-.059c3.31-.059 6.62-.106 9.93-.152l6.79-.117c5.51-.095 11-.18 16.5-.258-.319-7.21-.842-13-4.25-19.4-.583-1.13-1.17-2.27-1.77-3.43-2.04-3.22-4.2-5.54-6.98-8.13-.646-.706-1.29-1.41-1.96-2.14-6.91-6.29-16.7-7.61-25.7-7.53-7.27.37-13.1 3.02-19.3 6.67z"/><path fill="#E0B346" d="M1477 264c2.39 1.76 4.34 3.59 6.38 5.75 2.61 2.63 5.24 5.24 7.89 7.82l2.92 2.86 1.52 1.47c1.26 1.24 2.47 2.54 3.67 3.84v2l1.77.742c2.59 1.46 3.98 3.09 5.85 5.38 1.08 1.33 2.2 2.63 3.38 3.88h2l2 3c3.2 1.69 5.79 2.97 9.44 3.06 7.49-3.1 12.5-9.02 17.7-15.1.621-.652 1.24-1.3 1.88-1.98h2l2-4h2l.676-1.66c4.01-7.08 12.2-14.4 19.3-18.3 3.91-.53 5.99-.568 9.44 1.38 1.56 1.62 1.56 1.62 1.56 3.62l1.94.938c2.06 1.06 2.06 1.06 3.06 2.06.112 1.37.156 2.74.172 4.11l.038 2.68c.01.98.018 1.96.027 2.97l.04 3.11c.042 3.41.077 6.82.11 10.2l.077 7.09c.054 4.96.102 9.93.148 14.9.06 6.36.135 12.7.212 19.1.058 4.88.106 9.77.152 14.7.024 2.35.05 4.69.08 7.04.042 3.28.07 6.56.095 9.85l.045 2.94c.041 8.69.041 8.69-2.2 12.3-1.48.495-1.48.495-3 1-.495 1.49-.495 1.49-1 3-3.69 2.24-6.94 2.27-11.1 1.6-3.31-1.03-4.88-2.89-6.93-5.6-1.84-4.49-2.24-8.27-2.23-13.1v-2.07c0-2.24.016-4.48.032-6.72l.009-4.68c.007-4.09.027-8.19.05-12.3.02-4.18.029-8.37.039-12.5.021-8.2.055-16.4.097-24.6l-5.7 5.22c-.533.487-1.07.975-1.61 1.48-2.45 2.24-4.89 4.49-7.32 6.76-7.41 6.92-14 10.7-24.4 10.5-11.8-1.15-18.6-7.07-27-15-.976-.915-.976-.915-1.97-1.85-1.39-1.34-2.72-2.74-4.03-4.15v-2l-5-1 .02 2.78c.06 8.64.107 17.3.136 25.9.015 4.44.037 8.88.07 13.3.033 4.29.051 8.57.059 12.9.005 1.63.016 3.27.032 4.9.022 2.29.025 4.58.024 6.87l.02 3.95c-.387 3.66-1.15 5.5-3.36 8.41-4.58 3.27-7.92 3.14-13.2 2.32l-1.76-.324-1-3-3-1c-3.31-4.97-3.15-9.81-3.13-15.6l-.005-2.28c-.005-2.49-.002-4.98.002-7.48l-.003-5.26c-.002-3.69 0-7.37.005-11.1.005-3.74.005-7.47 0-11.2-.014-11.3.019-22.6.115-33.9.015-2.05.02-4.09.024-6.14.011-3.24.06-6.48.125-9.72l-.01-2.66c.173-5.47 1.58-8.36 5.3-12.4 3.91-3.23 8.79-3.15 13.2-1.05z"/><path fill="#205497" d="M949 263c4.06 1.93 6.44 4.31 9 8v2l3 1c1.19 2.56 1.19 2.56 2 5h2c3.74 3.33 6.58 7.06 9.53 11.1 1.95 2.53 4.18 4.68 6.47 6.91 1.58 1.8 3.13 3.62 4.67 5.45 1.06 1.23 2.18 2.4 3.33 3.55 1.5 1.74 2.98 3.49 4.46 5.25.951 1.09 1.93 2.15 2.96 3.16 1.53 1.54 2.93 3.13 4.33 4.79 2.2 2.59 4.42 5.15 6.67 7.7.851.968.851.968 1.72 1.96 1.17 1.33 2.35 2.66 3.52 3.98.559.639 1.12 1.28 1.7 1.94.506.573 1.01 1.15 1.53 1.74 1.1 1.49 1.1 1.49 1.1 3.49l6 1-.492-3.9c-.546-4.93-.653-9.8-.641-14.8l-.003-2.72c0-1.9.001-3.79.005-5.69.006-2.84 0-5.67-.006-8.51-.005-8.83.083-17.7.453-26.5l.065-2.21c.274-5.39 1.57-8.93 5.58-12.6 3.58-2.02 6-1.76 10-1.15 3.53 1.18 4.89 2.83 6.95 5.87 1.91 3.86 1.76 7.7 1.73 11.9l.037 2.91c.033 3.16.032 6.32.03 9.48.016 2.21.033 4.42.053 6.62.036 4.62.057 9.25.064 13.9.01 5.91.045 11.8.09 17.7.044 5.66.076 11.3.106 17l.019 3.24c.015 3.05.022 6.11.027 9.16l.016 2.69c-.004 15.8-.004 15.8-3.05 20.6-3.67 3.45-7.06 3.7-12 3.67-6.26-1.49-10.1-7.01-14.1-11.7-.648-.713-1.3-1.43-1.96-2.16-3.21-3.55-6.19-7.27-9.16-11-2.78-3.51-5.67-6.69-8.88-9.81-1.67-2-3.33-4-5-6l-2.25-2.25c-3.2-3.2-6.2-6.55-9.21-9.93-3.62-4.02-7.29-7.99-11-12-7.58-8.4-7.58-8.4-7.58-10.9l-6-2-.005 2.7c-.017 8.4-.06 16.8-.128 25.2-.034 4.32-.059 8.64-.063 13-.004 4.17-.033 8.34-.078 12.5-.013 1.59-.017 3.18-.013 4.77.005 2.23-.02 4.46-.054 6.69l-.02 3.84c-.807 4.21-2.33 5.7-5.64 8.33-4.32 1.07-8.9.98-13-.922-3.71-2.81-4.92-5.7-6.02-10.1-.287-3.31-.294-6.61-.291-9.93l-.02-2.98c-.02-3.25-.024-6.49-.026-9.74l-.02-6.78c-.012-4.74-.016-9.47-.015-14.2 0-6.06-.027-12.1-.061-18.2-.022-4.67-.026-9.34-.025-14-.003-2.24-.011-4.47-.027-6.71-.02-3.13-.014-6.26-.002-9.38-.01-.919-.022-1.84-.034-2.79.058-5.94 1.07-9.4 4.52-14.3 4.68-4.24 6.79-5.46 13-4zM891 273c1.13.557 2.27 1.11 3.44 1.69 4.66 2.59 7.74 6.87 10.6 11.3v2c1.49.495 1.49.495 3 1 7.46 9.67 11.1 21.4 11.2 33.5l.078 3.91c-.347 3.8-1.01 5.61-3.33 8.59-5.53 3.69-12.2 3.14-18.6 3.11h-2.52c-2.72 0-5.44-.008-8.16-.016l-5.69-.004c-4.97-.004-9.95-.014-14.9-.025-5.08-.01-10.2-.015-15.2-.02-9.96-.01-19.9-.027-29.9-.048.621 1.45 1.25 2.89 1.88 4.34.348.805.696 1.61 1.05 2.44 3.74 7.77 13.2 12.4 21 15.3 4.36 1.25 8.5 2 13 2.3 3.52.289 3.86.42 6.5 3.12l1.56 2.5 2 1c1.77 5.31 1.77 9.4-.625 14.4-3.61 4-6.63 4.47-11.9 4.94-14.1-.431-26.7-5.46-37.5-14.3-.99-.742-1.98-1.49-3-2.25-.66-.577-1.32-1.15-2-1.75v-2c-1.49-.495-1.49-.495-3-1-10.1-12.2-15.2-24.5-15.2-40.2l-.037-2.7c-.037-17.1 7.06-30 17.9-42.8 1.3-1.21 1.3-1.21 3.3-1.21v-2c22.1-17.9 50.9-21.5 75-5zm-62 25c-5.58 6.67-5.58 6.67-7 15h71c-1.7-8.5-5.77-14.9-13-19.8-.659-.41-1.32-.82-2-1.24-.566-.389-1.13-.779-1.71-1.18-14.7-9.48-35.7-5.22-47.3 7.18z"/><path fill="#205495" d="M753 273c3 3.31 3 3.31 3 6 1.49.495 1.49.495 3 1 1.33 7.03 1.33 7.03-.125 11.2-2.1 3.08-3.63 4.88-6.88 6.75-3.48.476-6.79.605-10-1v-2l-2.62-.812c-3.38-1.19-3.38-1.19-6.44-2.75-7.47-3.66-16.7-3.22-24.7-1.75-8.89 3.59-19.3 9.08-23.2 18.3h-2l-.312 2.44c-.557 2.89-1.27 5.32-2.25 8.06-2.21 6.55-1.46 10.9.828 17.3.903 2.7 1.37 5.38 1.73 8.19h2c1.36 1.98 2.69 3.98 4 6 2.1 2.44 2.85 2.95 6 4v2l2.56.812c3.44 1.19 3.44 1.19 6.94 2.75 9.63 3.96 20 3.36 29.5-.562 7.3-3.46 13.5-8.15 18-15v-4l-3.76-.113-4.93-.199-2.47-.068c-4.73-.211-7.98-.6-11.8-3.62-3.25-3.81-3.3-7.12-3.2-11.9.256-2.63.661-4.53 2.55-6.45 4.5-3.38 8.14-4.35 13.8-4.19l2.28.007c1.58.01 3.16.031 4.74.064 2.41.05 4.81.062 7.22.067 1.54.014 3.09.03 4.63.05l2.16.015c4.28.101 7.9.643 11.8 2.35.875 2.12.875 2.12 1 4h2c4.09 9.02 2.17 19-1.07 28-2.34 5.93-4.81 11.1-8.93 16h-2c-.226.732-.451 1.46-.684 2.22-4.09 8.64-15.7 14.7-24.4 17.9-6.26 2.04-12.3 3.57-18.9 3.85l-2.13.121c-14.8.451-28.1-4.29-39.9-13.1-.553-.41-1.11-.822-1.68-1.25-11.6-9.15-20.8-23.9-22.9-38.5-1.84-18.7 2.62-35.5 14.5-50.2 2.38-2.69 2.38-2.69 5-5 .599-.53 1.2-1.06 1.82-1.61 22.1-18.4 51.8-20.7 76.2-5.39z"/><path fill="#DEB045" d="M504 277c2 2.99 2.32 4.07 2.62 7.5l.227 2.34c.118 1.72.148 3.44.148 5.16h2c.198 3.56.381 7.12.562 10.7l.17 3.05.146 2.96.143 2.71c-.022 2.67-.459 4.98-1.02 7.59-.226 1.94-.429 3.89-.613 5.83-1.27 12.8-2.88 24.8-6.39 37.2-.39 1.75-.767 3.5-1.12 5.25-.723 3.1-1.48 5-2.88 7.75-.557 1.58-1.1 3.16-1.62 4.75-2.53 7.07-5.95 13.6-9.38 20.3-1.95 3.83-3.8 7.72-5.67 11.6-1.25 2.23-2.48 3.62-4.32 5.36-.516.887-1.03 1.77-1.56 2.69-.474.763-.949 1.53-1.44 2.31h-2l-.188 1.62c-1.17 3.42-3.48 5.64-5.81 8.38l-1 2.06c-1.47 2.84-3.72 4.71-6 6.94-.906 1.1-1.8 2.2-2.69 3.31-.763.887-1.53 1.77-2.31 2.69h-2l-.812 1.94c-1.19 2.06-1.19 2.06-4.19 3.06l-1 2-1 2-3 1-1 2-1 2-3 1c-.742.742-1.49 1.48-2.25 2.25-3.08 3.08-6.12 5.35-9.75 7.75h-2v2c-4.13 2.97-8.6 5.46-13 8-.583.339-1.17.677-1.77 1.03-31.8 18.3-67.3 26.3-104 26.4l-2.7.02c-11.9.052-23.1-.965-34.8-3.46l2-1v-5h11l1-2h2l1 2c1.81-.115 3.63-.242 5.44-.376l3.06-.21 2.5-.415 1-2-3 1v-3l7-1-2 2c1.09-.04 2.19-.082 3.31-.125 3.69.125 3.69.125 6.69 2.12 2.06.241 2.06.241 4.19.125 1.26-.04 2.52-.082 3.81-.125l1-2h4v2c1.74.874 1.74.874 4 1 .722-.629 1.44-1.26 2.19-1.91 3.44-2.56 5.89-2.87 10.1-3.34l3.8-.453 2.89-.297-3-1c-2.32-2.58-3-3.45-3-7l-2-1 2-2h3l1-4 3 1 1-12c5 2 5 2 6 4l3-3 2 2c2.07.643 2.07.643 4 1v2c.763-.165 1.53-.33 2.31-.5 2.69-.5 2.69-.5 5.69-.5l2-7c.843-.06 1.69-.12 2.55-.184l3.32-.254c1.09-.08 2.18-.162 3.3-.246 2.77-.146 2.77-.146 4.82-1.32v2l2.06-.875c4.72-1.81 8.86-3.12 13.9-3.12v-3c4.75-2 4.75-2 7-2l1-2 3-1 1-3c2.33-1 4.67-2 7-3l1-3-2-2 2.75-.875c3.13-.997 3.13-.997 5.44-2.25 1.81-.875 1.81-.875 4.81-.875l.438-1.94c.562-2.06.562-2.06 1.56-3.06v-2l6-1 1-4 4 1 1-4 5 1-1 3h2v-3l-2-2 3.19-.875c4.53-1.27 4.53-1.27 8.81-3.12 1.51-2.83.959-4.14.063-7.25l-1.06-2.75-2 3c-2.62.188-2.62.188-5 0-.625-1.81-.625-1.81-1-4l2-3h2v-6h3v-6c2.49-.687 4.38-1 7-1l.375-2.44.625-2.56 2-1-1-2c.688-2.5.688-2.5 2-5l4-2v-11l2-1c2.62 1.44 2.62 1.44 5 3 2.33-1.88 2.33-1.88 2.16-5.01l-.098-3.68c-.13-7.85-.13-7.85.5-11.5.669-2.88.669-2.88-.562-5.81l2-1v-6c5.75-.125 5.75-.125 8 1v-5l-2-1 1-2-3 1-2-2 5-2-5-1v-6l-2-1 1-7h3l-1-2 1-2h-2v-2c1.81-.625 1.81-.625 4-1l3 2-.562-1.88c-.438-2.12-.438-2.12.562-4.12l-2-1v-2l-3-1 1-5c3.62-1.32 6.1-2 10-2l1 2c1.23-3.69.644-6.21 0-10h2v-2z"/><path fill="#E0B246" d="M480 215h2v2l6-1c4.5 8.43 8 16.9 11 26 .349 1.04.699 2.08 1.06 3.14 2.04 6.32 3.67 12.7 5.13 19.2.167.741.334 1.48.506 2.25 1.48 6.79 2.46 13.5 2.37 20.4l-.027 2.88-.036 2.12c-2.23-4.03-2.54-7.45-3-12-1.49-.495-1.49-.495-3-1 .99 1.49.99 1.49 2 3-.375 3.19-.375 3.19-1 6l2 1-1.79-.289c-4.65-.652-7.93-1.06-12.2 1.29v4l2 1v2c1.49.495 1.49.495 3 1l-1 6-7-1v2h2l1 4-2 1-2-1c-.346 5.65.566 9.03 3 14 .495-1.49.495-1.49 1-3v3c1.49.495 1.49.495 3 1l-3 2-1 1h3l1 8h-7v7c-1.49-.495-1.49-.495-3-1v2l2 1-.219 2.56c-.639 7.52-.639 7.52-.656 15.1-.125 3.38-.125 3.38-1.62 5.38l-1.5 1-6-3 .063 3.25c-.049 2.94-.344 4.98-1.06 7.75l1 2-5 1c-.597 2.76-1 5.16-1 8h-2v5l-3-1-2 7h-1v-6h-2v6h-3c.206.578.413 1.15.625 1.75.469 2.82-.119 3.87-1.62 6.25l-2 2v3h5l1-4c2 1 2 1 3.31 4.25.688 3.75.688 3.75-.312 6.56-2.48 2.71-4.47 3.3-8 4.19l-3 1 1 2-1 2h-2l-1-3-3-1v5l-5-1-1 3h-2c-.474-1.11-.949-2.23-1.44-3.38-.816-1.89-1.64-3.78-2.56-5.62h2v-4h3c.17-1.73.336-3.46.5-5.19l.281-2.92c.2-2.65.258-5.24.219-7.89h-3v-2h3l1-4h-5l-1-2 1.94-.875c2.21-.953 2.21-.953 3.06-3.12l3-1v-2l-5-1 1-2h-1l-1-7-3 1-2-2v-1h-5l-1-3-3 1c-1.13-4.51-1.13-4.51-.5-6.94.693-2.86.083-5.21-.5-8.06l3-1-1-3c-3.05-.158-3.05-.158-6 1l2-8 6 1v-2h-2l-1-9c2 2 2 2 2 5h3l2 4c2.42.25 2.42.25 5 0 2.28-2.82 2.28-2.82 2-6 1.49.495 1.49.495 3 1l1 3v-9l-2-1v-5c2.48-.99 2.48-.99 5-2l1 1 1-2c1.49-.495 1.49-.495 3-1l-2-1v-13l2 1c.625 2.56.625 2.56 1 5h3v7c2.33 1.21 4.5 2.17 7 3-.835 2.5-1.79 4.67-3 7l1.38 1.38 3.62 3.62h-12c-1.71 1.94-1.71 1.94-3 4l2 3c-1.42.217-1.42.217-2.88.438-3.02.392-3.02.392-5.12 1.56v3l4-1v-2c3 1 3 1 4 3 2.02.652 2.02.652 4 1v-2l3 1-1 2 .625 2.44.375 2.56c-1.44 1.81-1.44 1.81-3 3l2 3 2.19-.438 2.81-.562c.887-.206 1.77-.413 2.69-.625 2.31-.375 2.31-.375 4.31.625l2-10 6-1v-3l-3-1h3v-4h-2c.369-6.4.369-6.4 3.56-9.44.804-.516 1.61-1.03 2.44-1.56l-2-2-2-2-1.94-.312c-3.01-1-3.66-2.95-5.06-5.69l-2 2c-1.47-3.81-.433-6.29 1-10h-2l-1 2-5-1v-3h-2l-1 2v-3l6-1-.938-1.88-2.06-4.12 2-1v-4l-3-1c-.077-4.52-.102-8.59 1-13l3 1c1.16.054 1.16.054 2.81-.625 2.76-.474 3.87.109 6.19 1.62l1 2 2.38-.5c2.62-.5 2.62-.5 4.62-.5l2-1v-3l-3 1c-1.57-5.03-2.45-9.76-3-15h-3v-2l-2-1 9-4c-.256-2.34-.593-4.68-1-7l-2-1-2-2v-3l-3-1h3l-4-1-1-6h3l-.625-1.88-.375-2.12c2.31-2.31 3.48-2.5 6.62-3.12.817-.168 1.63-.335 2.48-.508l1.9-.367v-2l-6 1c1.75-6.75 1.75-6.75 4-9-.322-1.34-.658-2.67-1-4 .438-2.75.438-2.75 1-5z"/><path fill="#E4B347" d="M341 106c2.18.343 4.37.63 6.56.875 6.83.895 13 2.7 19.4 5.12v2l-3.25-.063c-2.94.05-4.98.345-7.75 1.06l-2-1v2l1.71.665c2.26.975 4.27 1.93 6.29 3.34 1 3.25 1 3.25 1 6l-2.38.438c-2.59.44-2.59.44-4.62 1.56l-1 3h-5l-.312-1.94-.688-2.06c-2.85-1.24-2.85-1.24-5.25-.5-3.44.626-6.32.105-9.75-.5v-2l-3-1c-.688-2.06-.688-2.06-1-4-3.65-.972-6.4-.981-10.1-.5l-3.88.5c-.495-1.48-.495-1.48-1-3l-2-1v5h-4c3.33 1.11 5.62.845 9 0-.495 1.48-.495 1.48-1 3l-9 1-1 7c-1.49-.495-1.49-.495-3-1l-1-2-2 1 .562-2.44.438-2.56c-1.05-1.16-1.05-1.16-3-2 .495 1.48.495 1.48 1 3-.938 2.69-.938 2.69-2 5l-4-2 1-2h-3l1 5h-2l1 4-6.15.586-1.85.414-1 2h-3l-1-1c-2.48.637-2.48.637-5 2-1.2 2.32-1.2 2.32-1.88 5-1.64 4.7-1.64 4.7-3.93 6.1-1.95.523-1.95.523-5.2.898l-1-2-4 2c1.49.495 1.49.495 3 1l-1 2h-3l-2 7h-3v5l-3-1-1 8-1.88.312c-2.49.563-2.49.563-4.12 3.69h-4v2h-2v4l2 1c.043 1.67.04 3.33 0 5l-1 1c-1.77 3.71-2.25 6.65-2.19 10.8l.02 2.92c-.09 2.29-.09 2.29 1.17 3.33.494-1.49.494-1.49 1-3h2l1-2 4 2-2 5-4-1 2 8-2.44.875c-2.7.858-2.7.858-3.56 3.12-4.09.186-6.41-.151-10-2-2.32-.387-4.66-.73-7-1l1-4v2c2.51-.703 2.51-.703 5-2 1.32-2.93 1.04-3.88 0-7h-4l-1 6h-13l3 2-1 2h-2v2l-7 1c-3.41-9.77-3.41-9.77-2-14-.67-3.11-.67-3.11-3.06-4.19l-1.94-.812v-3c1.46-.336 2.92-.67 4.38-1l2.46-.562c2.16-.438 2.16-.438 4.16-.438l1-2h5c.102.598.205 1.2.311 1.81.786 2.5 1.66 3.56 3.69 5.19h2l1-4 4 1v-2l-6-1v5l-3-6-3-1 .063-2.75c-.052-2.68-.284-4.72-1.06-7.25 3-2 3-2 5-3 .658-3.03.658-3.03 1-6h3c-.557 3.34-1.35 6.03-3 9h2l1-2 1 4-4-1c.186 1.11.371 2.23.562 3.38.438 3.62.438 3.62-.562 5.62h2l.25-2.56c.907-4.16 2.52-6.83 4.75-10.4l2 1c.289-.742.577-1.49.875-2.25.948-2.32 1.97-4.53 3.12-6.75h8l1-8h3l1-4 2 2 2-4h2l-.125 2.38c-.162 2.79-.162 2.79 2.12 4.62l-1-7 5-2-4-1v-2l2-1c-.371-.825-.742-1.65-1.12-2.5-1.15-4.58-.262-7.03 1.12-11.5h-6v-6l2-1c.465-1.9.465-1.9.625-4.06l.375-3.94h-3v-4c2.12-.335 4.25-.668 6.38-1 1.18-.186 2.37-.371 3.59-.562 3.04-.438 3.04-.438 5.04-.438v-3c2.5-1.69 2.5-1.69 5-3l-2 1c-2.33.04-4.67.043-7 0v-2l1.8-.351c2.69-.526 5.38-1.06 8.07-1.59l2.84-.553 2.71-.537c.827-.162 1.65-.325 2.51-.492 2.11-.408 2.11-.408 4.06-1.48 19.5-2.3 47.6-5.46 66 2z"/><path fill="#E0B346" d="m1222 213 3.81-.037c15.4-.024 15.4-.024 20.5 3.78 3.65 4.87 4.74 8.72 4.36 14.8-.716 4.18-1.71 6.32-4.45 9.62-6.42 2.58-13.1 2.44-19.9 2.62l-3.52.117c-2.85.094-5.7.179-8.54.258-.993 2.98-1.13 4.96-1.13 8.07l-.004 2.96.012 3.09-.012 3.11.004 2.96.003 2.72c-.102 2.07-.102 2.07 1.13 3.09 2.11.135 4.23.204 6.34.246l3.97.1c2.08.046 4.16.09 6.25.13 7.7.154 15 .484 22.4 2.52l1 4h-8v-2l-5-1v-1h-9v1c-6.27.33-12.5.66-19 1v6h-2l2 3 1 3-1 2h2v2c1.48.495 1.48.495 3 1l-1 5c6.93.33 13.9.66 21 1l-1-5 3-1v-3h5l-2 1v2l9-1c.125 5.75.125 5.75-1 8h-2l-1 2-1.72-.497c-2.34-.518-4.34-.598-6.74-.553l-2.65.04-2.84.054-6 .064c-3.14.037-6.29.08-9.43.14-3.04.054-6.08.083-9.13.108l-2.82.072c-7.68.03-12.7-1.98-18.6-6.87-5.35-7.11-3.2-20.7-3.08-29.2l.043-3.46c.033-2.39.07-4.78.11-7.16.055-3.65.083-7.29.111-10.9.036-2.33.073-4.67.111-7l.013-3.28c.167-7.4 1.15-12 6.52-17.4 2.72-1.42 4.87-1.61 7.94-1.78l3.49-.194c6.17-.218 12.3-.315 18.5-.318zM107 356l4 2v2l1.62-1c3.08-1.3 5.05-1.4 8.38-1 3.38 1.69 3.38 1.69 6 4 .188 2.5.188 2.5 0 5 1.4 2.28 1.4 2.28 3 4l-1.56 1.25c-.474.577-.949 1.15-1.44 1.75a70.39 70.39 0 0 0 1 4c-2 3-2 3-4.62 3.69l-2.38.312v3h9l1 8 5 1v-2h2v8h3l.312 3.69c.45 3.72 1.47 6.23 3.69 9.31v-7h3l1-2h3v-2l8 1-.781 5.96c-.272 2.2-.272 2.2-.219 5.04l3-8h1v11l8-1v-9h2c.53 1.79 1.05 3.58 1.56 5.38.29.998.58 2 .879 3.02.559 2.6.559 2.6-.441 4.6l-2.44.875c-2.7.896-2.7.896-3.88 3.25l-.688 1.88-3-1v-2h-2l2 5 3.12-.125c3.76.121 6.38.826 9.88 2.12h2v4h2c-1.39 2.79-3.3 3.52-6 5-1.49.495-1.49.495-3 1 1.29 3.87 2.61 4.74 6 7 .908.846 1.82 1.69 2.75 2.56 3.2 2.73 6.05 3.19 10.2 3.44v2l9 1v-2h5l-1 4h6v2h2l.375-1.75c.631-2.27 1.51-4.18 2.62-6.25h6l-3 2 1.94.312 2.06.688 1 3-1 2 1 2h5c-.211 3.69-1 5.01-3.5 7.81-3.87 3.02-7.81 2.66-12.5 2.19v-2l-7 1v5c1.65.334 3.29.668 4.94 1l2.78.562c2.06.469 2.06.469 3.29.438h1v6l-5 1-2.39.688c-3.32.396-4.46-.334-7.24-2.12l-2.61-1.67c-3.84-2.63-7.6-5.36-11.3-8.16-2.1-1.49-4.11-2.67-6.45-3.73v-2l-2.44-.812c-.846-.392-1.69-.784-2.56-1.19l-1-3-1.75-.398c-3.3-.881-4.88-2.85-7.29-5.24-.475-.471-.951-.942-1.44-1.43-1.54-1.53-3.06-3.08-4.59-4.62-.52-.524-1.04-1.05-1.58-1.59-7.74-7.81-15-15.7-21.4-24.7l-1.26-1.78c-9.34-13.3-17.3-26.9-22.7-42.2-.68-1.67-1.37-3.34-2.06-5-5.94-14.7-5.94-14.7-5.94-20z"/><path fill="#205595" d="M1038 263c3.53 1.18 4.89 2.83 6.95 5.87 1.91 3.86 1.76 7.7 1.73 11.9l.037 2.91c.033 3.16.032 6.32.03 9.48.016 2.21.033 4.42.053 6.62.036 4.62.057 9.25.064 13.9.01 5.91.045 11.8.09 17.7.044 5.66.076 11.3.106 17l.019 3.24c.015 3.05.022 6.11.027 9.16l.016 2.69c-.004 15.8-.004 15.8-3.05 20.6-3.67 3.45-7.06 3.7-12 3.67-6.26-1.49-10.1-7.01-14.1-11.7-.648-.713-1.3-1.43-1.96-2.16-1.73-1.91-3.39-3.86-5.04-5.84-.715-.838-1.43-1.68-2.17-2.54l-2.21-2.65c-1-1.2-1-1.2-2.02-2.42-1.69-2.53-2.23-4.4-2.6-7.39l2 1 1-4-1 1-4-2 2-1v-3l3 1 2-2c2.06.207 2.06.207 4.44.812l2.37.582c1.75.482 3.47 1.03 5.19 1.61l-1 3h8v-3l11-1c1.95-5.48 1.95-5.48 1-11h-4v-2c-2.45.106-2.45.106-5 1-1.26 2.36-1.26 2.36-2 5l-2 3c-3.42-5.46-3.41-10-3.33-16.2l.005-3.01c.007-2.1.02-4.2.041-6.3.031-3.15.041-6.31.047-9.46.035-9.4.168-18.8.56-28.2l.063-2.19c.27-5.34 1.6-8.86 5.57-12.5 3.58-2.02 6-1.76 10-1.15z"/><path fill="#225394" d="M381 18c3 1 3 1 4 3 4.09.848 7.02 1.04 11 0 4.26-.39 7.81-.699 11.6 1.5.474.495.949.99 1.44 1.5l-1 5 4 1v2c1.46 1.63 1.46 1.63 3 3l-3 1 1 2c1.9.465 1.9.465 4.06.625l3.94.375-1 2 4 1v-2c5.3-.318 8.38.422 13 3h2l1-1c1.51-.232 3.04-.412 4.56-.562l2.5-.254c.638-.06 1.28-.121 1.93-.184.99 1.48.99 1.48 2 3l3-4c6.16 4.58 12.1 10.4 13.4 18.2.395 6.84-1.42 12.2-5.36 17.8-4.82 4.89-10.5 6.6-17.2 7.38-8.78-.878-15.5-4.6-22.5-9.77-2.61-1.89-5.28-3.26-8.21-4.6-1.17-.593-2.33-1.19-3.53-1.8-4.87-2.44-9.84-4.62-14.8-6.77l-2.67-1.17c-5.88-2.53-11.8-4.57-18-6.27l1-3 3-1 1-2-3.38.625-3.62.375-2-2c3.06-1.78 5.22-2.23 8.75-2.12l2.42.055 1.83.07c-.959-2.33-.959-2.33-4-4l-1-1c.286-1.68.618-3.34 1-5h3l1-3 3 4 10-2-2-1v-3l-2.88-.938c-3.12-1.06-3.12-1.06-5.12-2.06v-2l-3.38.188-3.62-.188-2-3 3-3z"/><path fill="#205595" d="M11 219c3 2 3 2 3.69 4.12l.312 1.88 3-1c1.12 4.75 1.12 4.75 0 7 .542 2.23.542 2.23 1.44 4.62l.871 2.48.691 1.9h-4l-1-3c-1.04 4.63-1.52 9.29-2 14l-5 1 .062 2.69c-.055 2.93-.393 5.47-1.06 8.31l2.81-.125c3.19.125 3.19.125 6.19 2.12l1-2h-2v-4l4 1c1.29 7.43 1.29 7.43 0 11h-2c-.02 1.26-.04 2.52-.062 3.81l-.035 2.14c.015 2.25.015 2.25 1.1 5.04h3c.389 1.62.76 3.25 1.12 4.88l.633 2.74.242 2.38-2 2v5h2c-.586 6.15-.586 6.15-1 8l-2 1 4 2-.125 3.56c0 4.99.479 9.79 4.12 13.4h-3v5h-1v-7c-1.24 2.48-1.54 4.77-2 7.5-.89 5.28-.89 5.28-2 7.5h-2l.125 3.38c-.125 3.62-.125 3.62-2.12 5.62v3l2-2 2 1v4l1 2 3 1v2h-2v2l2 1c-1.12 2.97-2.22 5.33-4 8-.735 3.45-1 6.46-1 10h-5l3 10h3v2h-2l1 5-2 1v-6h-4l-1-4h-2l-.77-3.48c-.348-1.57-.695-3.14-1.04-4.71l-.55-2.49c-1.05-4.74-2.14-9.47-3.26-14.2-1.89-8.15-3.33-16.4-4.14-24.7-.152-1.57-.316-3.13-.492-4.69-.978-9.7-.894-19.4-.873-29.1.005-3.01 0-6.02-.007-9.03-.005-13.8.45-27 3.14-40.6.295-1.6.588-3.2.88-4.79 1.99-10.8 4.29-21.5 7.12-32.2z"/><path fill="#DDB046" d="m556 373 2.44.906c2.56.954 5.12 1.92 7.67 2.9 1.7.633 3.39 1.27 5.09 1.9 4.03 1.51 8.06 3.04 12.1 4.59 1.96.755 3.92 1.5 5.88 2.25 1.59.627 1.59.627 3.21 1.27.89.348 1.78.696 2.7 1.05 4.39 2.34 7.18 5.85 9.36 10.3 1.13 4.29.294 7.91-1.69 11.8-3.48 4.8-3.48 4.8-7.31 6.19-8.91 1.34-15.9-1.48-24-5-1.6-.652-3.21-1.3-4.81-1.94l-2.38-.961c-4.31-1.69-8.66-3.3-13-4.91-16.6-6.17-16.6-6.17-20.7-11.9-1.42-4.43-1.47-7.87-.062-12.3 6.5-10.5 14.9-10.2 25.6-6.11z"/><path fill="#DEB146" d="M613 238c5.13 5.51 6.13 8.31 5.91 15.9-.344 2.86-.344 2.86-1.91 5.98-3.06 2.35-5.69 3.03-9.44 3.88l-2.48.957c-6.11 1.81-12.4 2.2-18.8 2.9-5.18.599-9.87 1.27-14.8 3.14-2.72.477-5.26.804-8 1l-3.19.234c-9.89.405-9.89.405-13.4-2.48-.784-.908-1.57-1.81-2.38-2.75l-1.88-1.88c-1.69-3.2-1.49-5.55-1.12-9.12 1.67-5.18 3.41-8.05 8-11 4.76-2.33 9.79-2.93 15-3.73l2.93-.462c2.05-.321 4.09-.638 6.14-.953 3.11-.479 6.21-.973 9.32-1.47 2-.311 3.99-.621 5.99-.93l2.78-.445c16.6-2.52 16.6-2.52 21.3 1.23z"/><path fill="#DEB045" d="M215 320v2l7 1v2h-4l4 1v2c-5.78 5.06-13.3 6.92-20.5 9-2.34.698-4.68 1.4-7.03 2.09-1.12.33-2.25.66-3.4 1-6.38 1.88-12.7 3.9-19.1 5.91l-2.82.89c-11.5 3.62-22.9 7.25-34.2 11.4-4.75 1.73-4.75 1.73-6.95 1.73v2c-2.96-.613-4.38-1.25-7-3-3.54-.226-6.61-.043-10 1-4.63-4.74-5.95-8.37-6.81-14.9l-.365-2.38c-.292-1.91-.56-3.83-.822-5.75h-1v-11l4 2v-5h6v2l3-1c1.9.305 1.9.305 3.94.875l2.03.555c.672.188 1.34.376 2.04.57 1.33.337 2.67.672 4 1l-2 2c.319 2.11.319 2.11 1 4l1.56-1c3.27-1.34 5.93-1.26 9.44-1 2.36 2.36 2.49 3.78 3 7 1.18-.206 2.35-.413 3.56-.625 4.23-.526 7.44.024 11.4 1.62l2 3 1-4 9-2v2l6 1c-.495-1.49-.495-1.49-1-3l3-1-3-1v-1h10l1-4h2v-2c3-1 3-1 5-1 2.33-.322 4.67-.655 7-1l2-5 5 1-2 1v2h7l-1-4c2.67-1.33 4.17-.671 7 0z"/><path fill="#E1B446" d="M547 97c4.8 2.4 7.64 5.18 10 10 .897 3.27.962 5.74 0 9-2.99 4.34-6.43 8.74-11.2 11.1-2.13.829-2.13.829-2.77 3.9-1.31.9-2.64 1.79-3.99 2.63-3.63 2.47-6.95 5.35-10.3 8.15-.886.732-1.77 1.46-2.68 2.22-.896.753-1.79 1.51-2.71 2.28-2.29 1.72-2.29 1.72-4.29 1.72l-1 3c-3.94 3.74-8.17 5.39-13.6 5.69-4.94-.233-7.7-1.53-11.1-5.05-3.42-4.3-3.86-8.23-3.3-13.6 2.37-5.87 5.39-8.34 10.8-11.5 2.42-1.59 4.2-3.39 6.22-5.46 1.67-1.42 3.36-2.81 5.06-4.19 2.97-2.41 5.94-4.82 8.89-7.26 9.12-7.55 9.12-7.55 14-10.6l1.88-1.25c3.38-1.19 6.62-1.29 10.1-.75z"/><path fill="#1F5699" d="m935 275 6 1 1 4-3-1c-1.22-.074-1.22-.074-3 1 .511 6.44 1.73 12 4 18l2-1v8h2l1 5c1.95-.842 1.95-.842 3-2 1.67-.04 3.33-.043 5 0 2.56 4.47 3.38 7.71 3.42 12.8l.026 1.99c.023 2.15.024 4.3.023 6.45l.023 4.51c.013 3.14.015 6.29.01 9.43-.007 4.02.024 8.05.064 12.1.026 3.1.03 6.21.025 9.31.002 1.48.012 2.97.03 4.45.022 2.08.012 4.15-.006 6.22l.007 3.57c-.806 4.08-2.43 5.57-5.62 8.14-4.32 1.07-8.9.98-13-.922-3.69-2.8-4.88-5.73-6.02-10.1-.247-3.48-.247-3.48-.243-7.35l-.006-2.15c-.004-2.33.007-4.66.018-6.99.001-1.63.002-3.26.001-4.89.002-3.41.01-6.83.024-10.2.017-4.36.02-8.72.02-13.1 0-3.37.006-6.74.013-10.1.003-1.61.005-3.21.006-4.82.002-2.25.01-4.51.021-6.76l.012-3.87c.143-3.98.585-7.79 1.13-11.7h1c.33-6.27.66-12.5 1-19z"/><path fill="#205395" d="M799 333c5.74-.234 10.6-.03 16 2l1 2v-4h2v3l4-2 1 4h-2c4.26 10.9 10.5 15.8 21 21 5.27 1.95 10.3 3.01 15.9 3.38 3.52.289 3.86.42 6.5 3.12.516.825 1.03 1.65 1.56 2.5l2 1c1.77 5.31 1.77 9.4-.625 14.4-3.61 4-6.63 4.47-11.9 4.94-14.1-.431-26.7-5.46-37.5-14.3-.99-.743-1.98-1.49-3-2.25-.66-.577-1.32-1.15-2-1.75v-2l-3-1c-5.61-6.8-11.5-15.2-13-24 .419-3.4 1.13-6.68 2-10zM753 273c3 3.31 3 3.31 3 6 1.49.495 1.49.495 3 1 1.33 7.03 1.33 7.03-.125 11.2-2.1 3.08-3.63 4.88-6.88 6.75-3.48.476-6.79.605-10-1v-2l-2.62-.812c-3.38-1.19-3.38-1.19-6.44-2.75-9.13-4.47-20.4-3.01-29.9-.438l-.812-2.38c-1.04-2.91-1.04-2.91-4.19-4.62-.188-3.12-.188-3.12 0-6-.99 1.49-.99 1.49-2 3l-2-3h-2l-1 2v-2h-2v-2l4-2-6-2c18.6-14.9 47.1-10.9 66 1zm-61 8 3 1c.381 2.33.713 4.66 1 7-1 1-1 1-2.85 1.1l-6.15-.098 1-7h4v-2z"/><path fill="#E1B64B" d="M223 123v4l2 1v3h8l.438 2.38c.44 2.59.44 2.59 1.56 4.62-3.88 1.19-6.92 2-11 2v2l-5 1c-.495 1.49-.495 1.49-1 3l-7 1v-2l-6 1c-.495-1.49-.495-1.49-1-3-2.87 2.72-2.87 2.72-5 6h2v2h-2l-1 2-3-1v-5h-2c-1.01 3.05-1.01 3.05 0 6-1.56 4.56-1.56 4.56-3 6l2 1-1 2a107.8 107.8 0 0 1-5 1l-1 1 2 2-7 2v6h-2v2h-4l-1 2v-2h-2l-.938-1.94c-.897-2-.897-2-2.06-3.06l-2 2c-1.49.495-1.49.495-3 1l1 6h2c0 4 0 4-1 6l2 1v4h-3l-1 3-5-1-1 3h-2c-.186-1.08-.186-1.08-.375-2.19-.615-2.77-1.51-5.21-2.62-7.81h4l.375-1.94.625-2.06 2-1v-2l-1.75-.312c-2.57-.785-4.19-1.99-6.25-3.69.577-3.71 2.05-5.45 4.66-8.09.767-.778 1.53-1.56 2.33-2.36l2.52-2.49c1.27-1.27 1.27-1.27 2.57-2.56 7.78-7.6 16.1-14.2 24.9-20.5.612-.447 1.22-.894 1.85-1.35 5.14-3.74 10.5-6.7 16.1-9.65 1.58-.866 1.58-.866 3.2-1.75 1.05-.557 2.1-1.11 3.18-1.69 1.43-.772 1.43-.772 2.9-1.56 3.08-1.14 4.63-.956 7.73-.004z"/><path fill="#225394" d="m290 30 3 1v4l2-1c1.52-.072 3.03-.084 4.55-.063l2.79.026 2.97.037c8.29.06 16.4-.128 24.7-1v2l13 1v-2c1.88.25 1.88.25 4 1l2 4 10-1-1-1c1-2 1-2 2.94-2.69 2.06-.312 2.06-.312 4.06.688v-3c1.65-.027 3.29-.046 4.94-.062l2.78-.036c2.29.098 2.29.098 3.29 1.1.04 2 .043 4 0 6h2v2l-9 1 1 4h-2v3h6l-1 2c-18.6-1.89-18.6-1.89-25.1-3.99-5.58-1.64-11.4-1.81-17.2-2.2l-3.87-.26c-17.1-1.02-34.1-.057-51.2 1.39l-2.71.225c-4.63.438-8.58 1.26-13 2.84-3.05.78-6.12 1.45-9.19 2.12l-2.44.551-2.35.52-2.12.47c-1.9.334-1.9.334-4.9.334-1.11-3.33-.845-5.62 0-9l4 1v-3l3.38.625 3.62.375c2.41-1.96 2.41-1.96 2.12-5.62l-.125-3.38c2.48-1.24 3.6-.9 6.31-.5 3.48.444 6.27.493 9.69-.5v2c6.93-.66 13.9-1.32 21-2l1-3z"/><path fill="#E4B347" d="M353 314c1.95.836 1.95.836 4 2 .75 2.62.75 2.62 1 5 3.49-.77 3.49-.77 7-2l1-3h2c1.05 1.64 2.05 3.3 3 5 1.74 1.74 3.62 1.77 6 2 1.84-1.33 1.84-1.33 3-3 .381 1.99.713 3.99 1 6l-1 1c-.231 1.35-.412 2.7-.562 4.06L379 335l2-2c2.5.125 2.5.125 5 1 1.96 2.97 2.19 4.96 1.69 8.44-.108.781-.217 1.56-.328 2.37-.395 2.41-.821 4.81-1.36 7.2.743-.227 1.49-.454 2.25-.688 2.75-.312 2.75-.312 5.06.562 2.35 2.96 1.93 5.22 1.77 8.9-.09 2.55.232 4.77.922 7.23l1 1c2 3 2 3 2 5l-3 1-3-2-1 3 1 2 3 1v3c-4.45-.253-6.44-2.08-9.36-5.32l-1.51-1.74c-.491-.548-.982-1.1-1.49-1.66-2.13-2.39-4.23-4.8-6.32-7.22-4.11-4.72-8.33-9.32-12.6-13.9-.646-.692-1.29-1.38-1.96-2.1-2.94-3.15-5.9-6.28-8.96-9.32l-2.77-2.83-2.44-2.41c-1.56-2.53-1.56-2.53-1.47-5.93.894-3.53 2.01-6.7 3.47-10 .455-1.05.91-2.1 1.38-3.18l1.06-2.38z"/><path fill="#215395" d="M132 90h-2l1 5 2-2c3.5-1.38 6.38-.741 10 0 .309 2.94.522 5.14 0 8-2.11 2.21-3.7 3.57-6.19 5.19-1.16.802-2.32 1.61-3.48 2.42l-1.71 1.18c-2.45 1.83-4.51 4.01-6.62 6.21l-2.44 1.88c-2.75 2.28-4.89 4.74-7.16 7.47-1.69 2-3.55 3.8-5.4 5.65-11.3 11.6-19.6 26.2-28 40l-1-2H70v-4h-2l-1-10 2.31-.375c2.89-.506 2.89-.506 5.69-2.62 1.11 3.33.845 5.62 0 9l4 1c.144-.598.289-1.2.438-1.81.45-1.75.991-3.47 1.56-5.19l-3-1c1-2 1-2 2-3l-4-1 1-6h6l-2-1v-2l5-2v-2h2l.188-1.75c1.13-3.12 3.23-4.25 5.81-6.25l1-3h3l-2-4c1.98-.731 3.98-1.39 6-2l2 1c-.495-1.48-.495-1.48-1-3 .438-2.69.438-2.69 1-5h-4l1-5h3l-1 2c3.82 1.37 7.07.68 11 0l2-6h4l.375-3.44c.206-1.18.412-2.35.625-3.56l2-1-2-2 4 1 1-5c3-1 3-1 6 0z"/><path fill="#FDFDFD" d="M254 321c1.75 3.56 1.75 3.56 3 7-4.26 4.02-8.28 5.21-13.8 6.56-5.9 1.5-11.5 3.22-17.2 5.44-4.96 1.8-9.93 3.26-15.1 4.5-3.99.971-7.75 2.11-11.6 3.62-3.27 1.21-6.6 2.22-9.93 3.25-5.19 1.6-10.4 3.25-15.5 5-7.56 2.55-15.2 4.85-22.8 7.13-4.26 1.28-8.48 2.59-12.6 4.18-5.22 1.97-5.22 1.97-8.48 1.32-1.88-1.69-1.88-1.69-3-4 .02-2.48.02-2.48 1-5 2.88-1.48 2.88-1.48 6.56-2.62l3.63-1.16c1.26-.4 2.51-.799 3.81-1.21 1.27-.471 2.54-.951 3.81-1.44 4.84-1.84 9.76-3.39 14.7-4.94.976-.309 1.95-.618 2.96-.936 5.38-1.7 10.8-3.39 16.2-5.06 8.72-2.71 17.4-5.52 26.1-8.33 5.64-1.82 11.3-3.61 17-5.34 4.04-1.24 8.06-2.53 12.1-3.92.888-.307 1.78-.615 2.69-.932 1.8-.629 3.61-1.26 5.41-1.91l2.65-.912c1.16-.41 1.16-.41 2.35-.827 2.51-.536 3.83-.497 6.18.534z"/><path fill="#E4B246" d="M1213 272h29v2l4 1v2c2.97-.342 2.97-.342 6-1l1-2c5.05.473 9.04 2.97 13 6l2 3-3 2c-.724 2.06-.724 2.06-1 4-4.75-.875-4.75-.875-7-2 1.67 3.22 1.67 3.22 4.62 3.69l2.38.312v3h2v3h2l-1 6h-3c.206.598.412 1.2.625 1.81.375 2.19.375 2.19-1.62 5.19l-3-1c1.18.928 1.18.928 2.38 1.88 2.62 2.12 2.62 2.12 4.62 4.12l3 1v1h3v2l2 1-2.81-.125c-3.35-.146-3.35-.146-6.19 2.12l-2-6h-3c-1.32-1.79-1.32-1.79-2.69-4.19-3.6-5.72-7.95-8.69-14.3-10.8v-2c.598.186 1.2.371 1.81.562 2.35.658 2.35.658 5.19-.562l1-8c-2.87.573-3.86.861-6 3v-2h-3v-2l-3-1v3l-2 1v5h-23l3-4-2-1 1-1-2-1v-2h-2c-.773-2.98-1.41-5.98-2-9l2-1v-4l5-1-5-1v-1z"/><path fill="#E1B446" d="M1331 344c5.46.352 5.46.352 8 1 1.5 2.06 1.5 2.06 2 4 .846-.351 1.69-.701 2.56-1.06 3.99-1.09 6.38-.614 10.4.063l3.75.535c3.42.488 6.84.977 10.3 1.46v3l-2.24.227c-7.01.907-12.2 2.69-18.3 6.34-2.47 1.44-2.47 1.44-5.16 2.31-2.47.91-2.47.91-3.34 3.21-.478 1.44-.478 1.44-.965 2.92-1.4 2.93-2.93 5.81-4.44 8.69l-1.2 2.34c-.387.737-.775 1.48-1.17 2.24-.349.67-.697 1.34-1.06 2.03-1.14 1.71-1.14 1.71-4.14 3.71-4.59.825-9.04 1.03-13.2-1.18-3.88-3.36-5.23-6.44-5.88-11.5-.237-3.35-.207-4.8 1.63-7.64l1.49-1.67v5h2l1-9 5-1c-.579-2-.579-2-2-4-3.04-1.29-3.04-1.29-6-2-.188-3.38-.188-3.38 0-7l3-2v2l3 1 2 1.06c2.08 1.15 2.08 1.15 5 .937l1-2c2.32-.407 4.66-.744 7-1v-3z"/><path fill="#1F5698" d="M402 13.2c2.31.872 4.63 1.71 6.96 2.54.813.293 1.63.585 2.46.887 1.67.601 3.35 1.2 5.02 1.79 4.08 1.48 7.3 2.88 10.7 5.61 2.53 1.28 5.06 2.53 7.62 3.75 14.5 7.14 14.5 7.14 18.4 11.2.25 2.71.25 2.71 0 5-1.49.495-1.49.495-3 1l-2-3c-1.98-.363-1.98-.363-4.12-.188l-3.88.188 1 3h-2v-2h-2l-1 2-1.21-1.43c-2.15-1.89-3.68-2.23-6.48-2.76l-2.45-.48-1.86-.332v2c-2.44-.375-2.44-.375-5-1l-1-2-2.88.125c-3.97-.159-4.42-1.42-7.12-4.12l6-1c-1.93-2.02-3.63-3.42-6-5-.188-2.62-.188-2.62 0-5l-6-3-1 2v-2l-2.88.562c-3.12.438-3.12.438-5.12-.562l-1 2c-6.52-.615-6.52-.615-8.94-2.56-.351-.474-.701-.949-1.06-1.44l-4 3-3-2-3.56-.375-3.44-.625c-1.12-1.81-1.12-1.81-2-4-2.53-2.23-2.53-2.23-5-4l-1 4h-3c-2-3-2-3-2-6l-4-1v-2c16.9-4.82 34.9 1.1 50.8 7.18z"/><path fill="#E4B246" d="M375 232h2v12h-3c1.27 4.82 1.27 4.82 5 8l-1 5c-2.38-.312-2.38-.312-5-1-2.29-3.44-2.18-4.99-2-9h-2l.438 2.19L370 252l.562 2.5c.447 2.55.511 4.92.438 7.5l3 1v-4l3 1c.688 2.06.688 2.06 1 4h3c-1 3-1 3-2 5h2l-1 2c-.917 2.75-1.11 4.36-1.06 7.19.063 3.81.063 3.81-.938 5.81l-3 1c-.763.846-1.53 1.69-2.31 2.56-2.69 2.44-2.69 2.44-5.81 3-2.88-.562-2.88-.562-4.75-2.12-1.5-3.24-1.33-5.91-1.12-9.44l-4-2v-2h-2l-1-7c-1.14.155-1.14.155-2.31.312l-2.69-.312c-1.69-2.44-1.69-2.44-3-5l-2-1 1-9h2l2 2-.625-3.31c-.375-3.69-.375-3.69 1.62-6.69 4.75.875 4.75.875 7 2l.312-1.94.688-2.06 3-1 1 1 1-2h2v-2l3-1c.474-.516.949-1.03 1.44-1.56 1.56-1.44 1.56-1.44 5.56-1.44v-3z"/><path fill="#DEB045" d="M351 148v31l-3 1c-1.58 2.55-2.37 5.08-3 8h2l1-2c.977 6.05.977 6.05 1 8l-2 2v1h-5c-.105 5.79.082 11.3 1 17v4h2l2 5-2 1-2-1v2l3 1h-3l3 1c1.19 2.06 1.19 2.06 2 4h2l-1 7-5 1 1 3c-.938 2.19-.938 2.19-2 4l-4-1-2 7h-6c-2.86-5.02-1.72-9.55-.938-15 .295-2.23.586-4.46.875-6.68l.508-3.88c1.17-9.15 2.11-18.3 3.12-27.5 2.33-21.3 2.33-21.3 3.53-31.2l.461-3.86c.449-2.83.449-2.83 1.45-3.83.368-2.33.702-4.66 1-7l2 4 1-7c5.88-2 5.88-2 7-2z"/><path fill="#205496" d="m742 313 2.3.007c1.59.01 3.18.031 4.77.065 2.43.05 4.86.061 7.29.067 1.55.014 3.1.03 4.65.048l2.19.017c3.68.087 6.48.332 9.61 2.35-1 1-1 1-4.06 1.06l-2.94-.063-1 2h-4l-3 1c.825.454 1.65.908 2.5 1.38.825.536 1.65 1.07 2.5 1.62v2l-1 1h8l-1 3 2 1-2 4h2c.143 7.43.143 7.43-1 11h-2c-.495-1.49-.495-1.49-1-3-.211 3.89-.211 3.89 1 7l-1 3c-3-1-3-1-6-3v-3l-4-1v-5l-2-1-1 4v-4l-1.76.048c-2.64.062-5.29.1-7.93.14l-2.76.076c-5.01.055-8.51.062-12.5-3.26-3.25-3.81-3.3-7.12-3.2-11.9.256-2.63.661-4.53 2.54-6.45 4.52-3.4 8.19-4.35 13.9-4.19z"/><path fill="#E0B146" d="m1578 324-2 1 2 13v-9h4l.148 2.28c.63 8.96 1.68 17.8 2.85 26.7h1c.054 3.06.094 6.12.125 9.19l.05 2.62c.066 8.49.066 8.49-2.18 12.2-1.48.495-1.48.495-3 1l-1 3c-3.72 2.26-6.96 2.24-11.1 1.52-1.88-.52-1.88-.52-4.5-1.96-1.93-3.59-.997-5.71-.023-9.56 1-4.63 1.15-9.28 1.4-14 .246-3 .246-3 1.25-6 .037-2.09.014-4.19-.043-6.28-.02-1.24-.042-2.47-.064-3.74-.053-2.61-.118-5.21-.195-7.82l-.053-3.75-.083-3.43c.438-2.98.438-2.98 2.23-5.36 3.09-2.26 5.48-1.9 9.21-1.61z"/><path fill="#1F5699" d="m227 19 2 1v-1h5c0 3 0 3-1 5l1 2.5 1 2.5-1 2 5-1 1 2c-1.44.506-2.87 1-4.31 1.5-.801.278-1.6.557-2.43.844C231 35 231 35 228 35v-2h-7l-1 3c-.784-.722-1.57-1.44-2.38-2.19-2.34-1.6-3.24-1.88-6.07-1.38-1.71.573-3.41 1.19-5.09 1.86-2.88.818-4.57.283-7.46-.301l-3 2c.495 1.48.495 1.48 1 3-.438 2.19-.438 2.19-1 4l-2.74-.07-3.57-.055-3.55-.07c-3.3-.058-3.3-.058-6.14 2.2-.724 2.06-.724 2.06-1 4-2.79.027-5.58.046-8.38.062l-2.41.026c-5.99.025-5.99.025-8.22-1.09l1-8-2-1c7.67-3.88 15.4-7.75 23.1-11.4.993-.473 1.99-.946 3.01-1.43 5.42-2.13 11-2.35 16.8-2.75.684-.125 1.37-.25 2.07-.38l1-2 6 1-2 5h3l1-3h2v-2h3v2h3v2c2.47-.343 2.47-.343 5-1l1-2h-2v2l-2-1 1-3h3v-2zm-70 21h2l-2 4-1-2 1-2z"/><path fill="#215395" d="M1006 344c1.6.31 3.21.623 4.81.938l2.71.527c2.48.535 2.48.535 5.48 1.54l-1 3h8v-3l8-1c4.58 5.01 4.33 9.26 4.04 15.9-.04 2.91.36 5.29.957 8.12-.312 3.75-.312 3.75-1 7l-2 1 1 2h-3v2l3-1v2c-3.73.575-7.21 1-11 1-1.89-1.47-1.89-1.47-3.81-3.5-.697-.735-1.39-1.47-2.11-2.23-.684-.75-1.37-1.5-2.07-2.27-.592-.647-1.18-1.29-1.79-1.96-1.77-1.99-3.49-4-5.21-6.04-1.08-1.26-1.08-1.26-2.18-2.55l-2.2-2.64c-.668-.798-1.34-1.6-2.02-2.42-1.69-2.53-2.23-4.4-2.6-7.39l2 1 1-4-1 1-4-2 2-1v-3l3 1 1-2z"/><path fill="#225394" d="M372 581h7l-1 2h-2v2h12c-1.12 2.94-1.12 2.94-3 6-3.19.875-3.19.875-6 1l-1-2-3 1v5l2 1c-8.09 2.64-16.1 4.52-24.5 5.81l-2.57.411c-4.52.658-8.45 1.04-12.9-.224l-1-2h-6l-1 2-9-1 3-1v-3h-2l-2-5 3-1 2 1 2-4h2v-2h7v-2h13l1-3h8l1 2h-3v2l1.5-.5c3.5-.7 6.94-.5 10.5-.5 2.34-.184 2.34-.184 4-1l1-3z"/><path fill="#E4B346" d="M389 168c2 0 2 0 3.62 1.5.681.743.681.743 1.38 1.5l1-1h5l1-2c2 2 2 2 2.12 4.62l-.125 2.38h3l1-5c.495 1.49.495 1.49 1 3h2l-1 3 1 1c.04 2 .043 4 0 6l9-1c-1.88 4.75-1.88 4.75-3 7l3 1c-.495 1.49-.495 1.49-1 3h-2l-1 4-4-1 2-1-2-2-2 1c-1 0-1 0-4-1l-1 2 3 1h-3l.063 2.94c-.063 3.06-.063 3.06-1.06 4.06-1.67.04-3.33.043-5 0l1 3 2 1c.382 1.66.714 3.32 1 5l1 2c-2.12 1.62-2.12 1.62-5 3-3.12-.812-3.12-.812-6-2-3.52 0-4.37.824-7 3l-2-1 1 3c-8.02 4.78-8.02 4.78-11 5-2-2-2-2-2.25-5.31.235-3.47.82-5.58 2.25-8.69.359-1.33.702-2.66 1-4h3l2-2 3 3 2-3 2 2 2 1 1-2c1.49.495 1.49.495 3 1v-6l-5-1 1-4 9 1c1.16-3.96 1.16-3.96 1-8l-2-1h2l1-2h2v-4l-3 1 1-4-4-1v-2l-8-2 2-6z"/><path fill="#E3B146" d="M1576 263c2.88 1.88 2.88 1.88 5 5 .687 3.33.927 6.6 1 10h-3v-3h-3l-2-2c-2.11.319-2.11.319-4 1l-2 7c1.26-.392 2.52-.784 3.81-1.19 2.21-.559 2.21-.559 4.19-.812 2.27 1.46 2.81 2.62 4 5h4v10l-4-2-1 5-6-1-1-3c-1.79.03-1.79.03-3.62.063-3.56.006-6.88-.364-10.4-1.06l1 3h-4c-4.06.46-7.46.878-11 3-1-3.16-.988-5.39-.312-8.62l.449-2.35c1.12-2.63 2.34-2.82 4.86-4.02.686-1.32 1.35-2.66 2-4 15.9-17.7 15.9-17.7 25-16z"/><path fill="#DEB045" d="M272 168c1.77.087 3.54.195 5.31.312l2.99.176c2.96.56 3.96 1.1 5.7 3.51v2l5-1c-2 3-2 3-4.12 3.69L285 177l.188 3.19c-.195 3.97-.891 5.65-3.19 8.81l2 1c.633 1.85.633 1.85 1.12 4.06.168.733.335 1.47.508 2.22l.367 1.71h-2v2h-3v2l4-1 .332 1.86.48 2.45c.151.801.302 1.6.457 2.43.806 2.5 1.75 3.59 3.73 5.26-.812 1.94-.812 1.94-2 4-1.49.495-1.49.495-3 1v2h2c1 6.75 1 6.75 1 9l-5 1-.25 1.75c-.964 2.89-2.52 4.22-4.75 6.25l-2 2-3-1-1-11c4-1 4-1 6 0v-3c-1.49.495-1.49.495-3 1v-8l1.88-.25c2.31-.563 2.31-.563 3.38-2.81l.75-1.94-1.88-.375c-2.12-.625-2.12-.625-4.12-2.62l1-2-3-1v-4c2-1.75 2-1.75 4-3l2 1 1-5-5 1v-7l-4-1 1-5h-2v-2l-4-1c0-3 0-3 2-5l1-3 2-2 1-3z"/><path fill="#E2B74B" d="M1460 296c.804.464.804.464 1.62.938 2.77 1.24 5.38 1.65 8.38 2.06l-4 2 1 3c.779 2.34 1.4 4.62 2 7l1 3v3h2l.375 3.25c.521 3.13 1.03 5.08 2.62 7.75h2c1.88-7.01 3.4-13.8 4-21h1v43h-1l-.402-3.39-.535-4.42-.264-2.24c-.381-3.12-.803-5.96-1.8-8.95l-6 2v9h-2l-1 2h-1l1 7c-1.48.495-1.48.495-3 1l-1 2-2-1-1 9-2-4-2-1c-.117-15.2-.017-30.5.438-45.7l.06-2.16c.056-2.01.12-4.03.187-6.04l.11-3.51c.206-2.61.206-2.61 1.21-3.61z"/><path fill="#E1B346" d="M254 432c.897.681.897.681 1.81 1.38 1.69 1.26 3.43 2.45 5.19 3.62-2 2-2 2-4 3l1 6h3v4h2l-1-6c1.88-1.06 1.88-1.06 4-2l2 1c-1 2-1 2-2 3h3v2h2v2h2v2h-4l-3 6-6-2c-.09 1.03-.09 1.03-.184 2.08l-.254 2.73-.246 2.71C259 466 259 466 257.996 469h-2v-4c-3.77-.185-3.77-.185-6.38.688-3.6.428-5.56-.904-8.62-2.69-.495 1.49-.495 1.49-1 3-2.5-.835-4.67-1.79-7-3h3c-.275-3.82-.275-3.82-2-7l-3-1 2-2.38c2.2-2.34 2.2-2.34 2-4.62h4v-2l5 1v-4l-6 2v2l-5-1-1-3h3l-1-3c1.12-2.19 1.12-2.19 3-4 2.69-.25 2.69-.25 5 0v2l5 1v2l3-1 1 4 1-3 2-3a74.293 74.293 0 0 0-1-5l1-1z"/><path fill="#215395" d="m216 47.9 3.44.063-4 3 2.38.374c2.62.625 2.62.625 4.62 2.62l1-4 1 4h5c-1 3-1 3-2.7 3.92l-2.2.764c-.803.287-1.61.572-2.43.866-.859.293-1.72.587-2.6.889-1.75.623-3.51 1.25-5.26 1.87l-2.54.894c-10.4 3.65-20 8.51-29.7 13.6-1.07.553-2.13 1.11-3.23 1.68-.953.505-1.91 1.01-2.89 1.53-2.43.969-2.43.969-5.43-.032v-2h-2l-1 2-1-6c1.66-.382 3.32-.714 5-1l1 1 2-4h5v-3c.317-2.34.648-4.67 1-7l4 1-1-3 1-3c5.71-.993 11.2-1.1 17-1l.746-1.96c1.25-2.04 1.25-2.04 3.16-2.62l2.15-.113c4.21-.334 4.4-1.3 8.5-1.38z"/><path fill="#DEB045" d="m299 394 7 1v2l2.88.562c3.12 1.44 3.12 1.44 4.5 5.06l.625 3.38-2 2c.495 1.49.495 1.49 1 3 2.67 1.33 4.17.671 7 0l1 2-5 1-1 7c3.06.544 5.89 1 9 1v2l1 1-2 4h2v2h-2v5l-5 1c.309-.598.619-1.2.938-1.81 1.16-2.28 1.16-2.28 2.06-5.19-3.38.537-6.7 1.11-10 2-.982-4.05-1.08-7.84-1-12l-4 1-1-5h-2v-2h-4l-1 6-3-2 1-2-3-3v-3l-3 1c-2.69-.438-2.69-.438-5-1l-.375 3.44c-.206 1.18-.413 2.35-.625 3.56l-2 1-1-5v5c-2.36-3.61-1.81-5.88-1-10l-1-2 2-2c.46-2.2.46-2.2.625-4.62l.375-4.38 10 2v4l1.68-.473 2.2-.59 2.18-.598c1.95-.34 1.95-.34 3.95.66v-3l-3 1v-4z"/><path fill="#E0B246" d="M188 396h5v3c4.46.99 4.46.99 9 2v8l4-3 2 2 3 1v2l-9 4c0 3.26.552 5.1 2 8l3 1c-1 3-1 3-4 5l1-1 1 3h-3v4h-4l-1 5-2-1-1 2 1.94.375L198 442l1 2c-10 0-10 0-12-1-1.67-.04-3.33-.044-5 0v-7l7 1 2-8-9 1-2-5h2l1-3h5l-.562-3.62c-.475-3.68-.117-6.72.562-10.4l-1-3c-.23-6.54-.23-6.54 1-9z"/><path fill="#E4B347" d="M1195 214h28l1 2c2.35.434 2.35.434 5.12.562l3 .227 2.88.211c2.39.224 4.64.538 7 1l1 2h-2l-1 3-4-3-1 2-7-2v2h5c-5.13 2.75-8.22 3.18-14 2v4c-.5 2.12-.5 2.12-2 4-2.66.965-5.21 1.46-8 2v5c-3.3.889-6.62 1.46-10 2l-2-4-4 3-1-2-2 10h-1c-.195-2.27-.381-4.54-.562-6.81l-.316-3.83c-.121-3.36-.121-3.36.879-6.36.557.186 1.11.371 1.69.562 2.74.518 4.61.045 7.31-.562h4l-1-4 2-1v-3h-2l-1 5-1-2h-4c-1.06-3.38-1.21-4.58.438-7.81.516-.722 1.03-1.44 1.56-2.19h-2v-2z"/><path fill="#215497" d="m16 259 4 1c1.29 7.43 1.29 7.43 0 11h-2l-.063 3.81-.035 2.14c.015 2.25.015 2.25 1.1 5.04h3c.39 1.62.761 3.25 1.12 4.88l.633 2.74.242 2.38-2 2v5h2c-.586 6.15-.586 6.15-1 8l-2 1 4 2-.125 3.56c0 4.99.48 9.79 4.12 13.4h-3v5h-1v-7c-4.65-.517-4.65-.517-8.62 1.38-.454.536-.908 1.07-1.38 1.62-2.69 1.19-2.69 1.19-5 2v-2l-3-1-1-5c1.48-.495 1.48-.495 3-1l1-8h2l1 2h3l2-4h-7l-2-5 2-2c.167-3.58.167-3.58 0-7l7-3-1-4-2 2-2-5h-2l-2-5 2-2h3c-.526-.866-.526-.866-1.06-1.75-1.09-2.61-.868-3.64.063-6.25h-4l1-6h3l1-2 3 1 1-2h-2v-4z"/><path fill="#E1B346" d="m459 285 3 1c1.16.054 1.16.054 2.81-.625 2.76-.474 3.87.109 6.19 1.62l1 2 2.38-.5c3.29-.627 5.42-.355 8.62.5v-2h2v4h-2l1 2.38c1.27 4.62 1.17 8.87 1 13.6l-2 1c-.461 2.06-.461 2.06-.75 4.44-.477 2.46-.477 2.46-1.25 4.56-3.12 1.56-3.12 1.56-6 2l1 3c-1.88.625-1.88.625-4 1-2.45-2.45-2.35-3.49-2.62-6.88l-.227-2.62c-.128-2.17-.148-4.34-.148-6.51h-2v3c-3.91-1.27-5.79-2.51-8-6l2-1v-4l-3-1c-.076-4.52-.102-8.59 1-13z"/><path fill="#E4B347" d="m1581 268 4 3c.381 2.99.506 5.61.454 8.6l.002 2.66c-.003 2.91-.034 5.81-.065 8.72-.008 2.01-.014 4.03-.018 6.04-.015 5.3-.054 10.6-.098 15.9-.041 5.41-.06 10.8-.08 16.2-.043 10.6-.11 21.2-.195 31.8h-1c-.455-3.91-.9-7.83-1.34-11.7-.223-1.98-.454-3.97-.685-5.95l-.42-3.79-.397-3.49c-.143-2.68-.006-4.51.838-7.02-1.48.495-1.48.495-3 1v9c-2-1-2-1-2.62-2.78-.392-2.29-.477-4.39-.44-6.72l.027-2.28.035-2.22v-6h-2c-.495-1.49-.495-1.49-1-3l2-1c-.321-1.34-.66-2.67-1-4-.29-1.22-.578-2.43-.875-3.69-.371-1.09-.743-2.19-1.12-3.31l-3-1c-.495-1.49-.495-1.49-1-3l2-2a90.91 90.91 0 0 0 2-4c2.47.99 2.47.99 5 2l3-4 3 1v-9l-4 1-.312-1.94-.688-2.06c-3.69-1.23-6.21-.644-10 0-.201-3.63.142-5.87 2-9 6.88.875 6.88.875 8 2l2 1 1 3v-10z"/><path fill="#D7AE48" d="M1207 213c3.98-.05 7.97-.086 12-.11 2.01-.015 4.03-.04 6.04-.066 16-.08 16-.08 21.1 3.73 3.64 4.87 4.75 8.72 4.34 14.8-.723 4.34-1.45 6.28-4.44 9.62-3.31 1.37-6.42 2.15-10 2-2.14-1.43-2.14-1.43-4-3-2.65-.714-2.65-.714-5-1l3-5 3 1-2-5v3c-4.55.37-4.55.37-6.81-1.5-.392-.495-.784-.99-1.19-1.5l-1 3c-3.75-1.45-3.75-1.45-4.88-3.94-.125-2.06-.125-2.06 1.88-5.06 2.01-.065 4.02-.119 6.02-.039 2.14.042 3.94-.283 5.98-.961l-3-1v-2l3.25.5c3.78.588 3.78.588 7.75.5l1 1 2-3c-5.33-.695-5.33-.695-10.7-1.22l-2.69-.219-2.52-.184c-2.1-.379-2.1-.379-4.1-2.38a101.86 101.86 0 0 0-7.62-.625l-2.14-.117c-1.74-.094-3.49-.177-5.23-.258v-1z"/><path fill="#E0B246" d="M380 333c2.88.25 2.88.25 6 1 2.01 2.93 2.19 4.97 1.69 8.44-.108.781-.217 1.56-.328 2.37-.395 2.41-.821 4.81-1.36 7.2.743-.227 1.49-.454 2.25-.688 2.75-.312 2.75-.312 5.06.562 2.35 2.96 1.93 5.22 1.77 8.9-.09 2.55.232 4.77.922 7.23l1 1c2 3 2 3 2 5-1.49.495-1.49.495-3 1l-3-2-1 3 1 2c1.49.495 1.49.495 3 1v3c-3.68-.183-5.5-1.22-7.97-3.8-1.04-1.16-2.07-2.33-3.09-3.51-1.03-1.16-2.06-2.33-3.1-3.49-.484-.554-.969-1.11-1.47-1.68-1.18-1.3-2.43-2.54-3.7-3.75-2.28-2.42-2.26-4.52-2.67-7.77-1.29-3.32-1.89-3.93-5-6h3l1-2h3v-3c2.5-2.19 2.5-2.19 5-4l2 1v-7l-3-1v-3z"/><path fill="#DAAD44" d="M558 374c1.53.572 1.53.572 3.08 1.16 2.5.938 4.99 1.89 7.48 2.84l-4 3 1 2 3 1v2l-2.44.875c-2.7.858-2.7.858-3.56 3.12h-3l-1 3c-6.55-1.45-6.55-1.45-8.56-3.88-.559-2.72.09-3.83 1.56-6.12l-3 1c-2.26-.34-2.26-.34-4.69-.938-.808-.195-1.62-.389-2.45-.59l-1.86-.473v2h6c-.188 1.81-.188 1.81-1 4-2.56 1.75-2.56 1.75-5 3l-2-4c-.557.351-1.11.701-1.69 1.06-2.85 1.16-4.4.747-7.31-.062.028-6.25 1.08-9.96 5.33-14.6 7.63-6.45 15.8-2.6 24.1.59z"/><path fill="#1F5695" d="m775 316 1 4h2c4.11 9.07 2.11 19-1.07 28.1-2.21 5.69-4.12 10.1-8.93 13.9-3.25-2.83-4.52-4.69-5-9l-2 1v-4l-7-1c-1.6-3.51-2.22-6.14-2-10h5c1.12 3.75 1.12 3.75 0 6l4 1v3l2.44.375L766 350l1 2c-.537-3.38-1.11-6.7-2-10l3-1 1 2-1 2h2l1-11h-2c.186-.598.371-1.2.562-1.81.658-2.35.658-2.35-.562-5.19h-8v-2h2v-2l-2.44-.875c-2.56-1.12-2.56-1.12-3.56-3.12 5.62-2 5.62-2 9-2l3-.5c3-.5 3-.5 6-.5z"/><path fill="#205595" d="M675 366c5.57 1.77 5.57 1.77 8 3.06 2.61 1.22 5.16 1.55 8 1.94l-1 2-5-1v2l3.38-.188L692 374c.99 1.49.99 1.49 2 3l-1 2 12-1v-3l5.37-2.73c2.05-1.59 2.25-2.75 2.63-5.27 1.79.114 3.58.241 5.38.375l3.02.211c2.6.414 2.6.414 4.6 2.41h-3v2l7 2-1 5-9 2c1.62 3.17 1.62 3.17 4.16 3.51l2.46.176 2.48.199 1.9.113v2c-18.9 2.39-35.5-.307-51-12-2.05-1.62-4.03-3.28-6-5l1-4z"/><path fill="#205597" d="m275 572 2 3v-3c2.75 1.38 3.51 3.37 5 6l-4 1 2-1v-2h-3v8l4 1c.562 1.94.562 1.94 1 4l-1 1h6l-1 4h9c-1.58-3.68-1.58-3.68-3-5v-2l8 1v2l2 1c-1 2-1 2-3 4-2.75.369-5.2.183-8 0v2a877 877 0 0 1-4.44-.938l-2.5-.527c-2.07-.535-2.07-.535-3.07-1.54a110.13 110.13 0 0 0-5.56-.063l-3.07.028-2.37.035 1-7-2 1-1 3h-6v-3c-4.92-1.52-4.92-1.52-10-2l-2-1c-.342-1.67-.674-3.33-1-5l-2-2 1-3h9v4c.433-.474.866-.949 1.31-1.44 1.69-1.56 1.69-1.56 4.69-2.56v-2c4.06-.984 7.83-1.31 12-1z"/><path fill="#205598" d="M933 349h1c.84 4.35 1.11 8.44 1.06 12.9l-.027 3.49-.036 2.63h2l-.562-1.88c-.438-2.12-.438-2.12.562-4.12h3v-2l5 1c.05.638.098 1.28.148 1.93l.227 2.5.211 2.5.414 2.07 2 1c.727 1.98 1.4 3.98 2 6 1.25-1.93 1.25-1.93.438-3.81-.584-2.92.343-4.53 1.56-7.19v-1l2-2c.458-1.97.458-1.97.625-4.12l.375-3.88h1c.145 4.4.234 8.79.312 13.2l.127 3.78c.123 9.18.123 9.18-2.62 13.4-4.62 2.75-8.61 2.62-13.8 1.68-3.5-1.63-5.48-3.89-7.14-7.42-1.26-5.26-1.11-10.4-1.05-15.8l.002-3.31c.045-8.08.045-8.08 1.19-11.5z"/><path fill="#1F5699" d="M297-.114h2.55l2.74.016 2.81.004c2.97.006 5.93.018 8.89.031l6.03.014c4.93.01 9.86.028 14.8.049-2.14 2.14-3.13 2.43-6 3l-.297 1.86c-1.23 6.65-1.23 6.65-3.64 9.14-2.06 1-2.06 1-5.06 2-.733 2.02-.733 2.02-1 4l-7-1-1-3c1.44-2.19 1.44-2.19 3-4l1 2-1 2h2l-1-4h-11l-1 2c-.557-.186-1.11-.371-1.69-.562-2.71-.513-4.66-.102-7.31.562l1-8c-2.48-.99-2.48-.99-5-2V1c2.76-.92 4.36-1.12 7.2-1.11z"/><path fill="#DFB146" d="M1477 351h4v3h-2c.973 1.35 1.97 2.69 3 4h1c.087 3.56.141 7.12.188 10.7l.076 3.05c.092 9.22.092 9.22-3.26 13.3-4.02-.236-6.51-.669-9.88-2.94-2.93-4.22-3.02-8.03-3.12-13.1h-2l2-12 4-1 2-2v2h2l-1-3h2l1-2z"/><path fill="#205595" d="M756 277v2l3 1c1.33 7.03 1.33 7.03-.125 11.2-2.1 3.08-3.63 4.88-6.88 6.75-3.48.476-6.79.605-10-1v-2l-2.62-.812c-3.38-1.19-3.38-1.19-6.44-2.75-5.5-2.69-10.8-2.57-16.8-2.5l-2.39.014c-1.93.011-3.87.03-5.8.048l1-3c5.45-1.06 10.7-1.78 16 0l-1-3h7l-4 2c2.71 1.35 5.01 1.07 8 1v-7h5c.495 1.49.495 1.49 1 3l6.05-.293 1.95.293 2 3 .375-3.44c.206-1.18.413-2.35.625-3.56 2-1 2-1 4-1z"/><path fill="#225394" d="M751 315v2h-6v2c-6.75 1.12-6.75 1.12-9 0l1 6v-3l3 1v4c3.89.211 3.89.211 7-1l1-5h6l1 5c-2.56 2.01-5.05 3.63-8 5v3h4v2l-3.44.375L744 337l-1 2c-9.81.577-9.81.577-14-3-3.25-3.81-3.3-7.12-3.2-11.9.369-3.79 1.19-5.07 3.95-7.77 5.93-4.11 14.6-3.3 21.2-1.31z"/><path fill="#1E5598" d="M970 286c.701.722 1.4 1.44 2.12 2.19 1.93 1.94 3.92 3.68 6.06 5.38 2.67 2.31 3.31 3.44 4.81 6.44l3 2.5c3 2.5 3 2.5 3.97 4.47 1.19 2.35 2.47 3.42 4.53 5.03 2.75 2.15 3.99 3.88 5.5 7 1.41 1.58 1.41 1.58 3.06 3.06 5.64 5.47 11.7 11.7 14.9 18.9-6.06.713-6.06.713-8.61-1.23-1.39-1.58-1.39-1.58-3.39-4.77l1-3-7-1-1-4h-2l1 3-3 2-4-5h3v-6c-1.14.248-1.14.248-2.31.5-2.69.5-2.69.5-5.69.5v-3l4-1c-.619-.557-1.24-1.11-1.88-1.69-2.2-2.39-2.99-4.32-4.12-7.31l-2-1c-3.3-2.8-4.52-4.68-5-9h-3l-.375-1.88c-.497-2.32-.497-2.32-2.62-4.12l1-2-4 1v-5l2-1z"/><path fill="#205595" d="M43 305h1l.168 2.76c.209 3.43.42 6.87.632 10.3l.271 4.43c.293 4.84.604 9.67.93 14.5l.219 3.29c.378 4.9 1.03 9.08 2.78 13.7.598 2.37 1.16 4.74 1.69 7.12l.824 3.63c.441 2.93.499 4.52-.512 7.24l-.48-2.12c-1.19-5.67-1.19-5.67-5.14-9.45l-2.38-.438c-1-1-1-1-1.06-3.4l.125-5.94c.066-2.77.066-2.77-1.06-5.66h2v-2l-2-1h2v-2l-6 1-2-5h-2l-1-3h2v-4h2v-3l-3-1h3c-.495-.743-.99-1.49-1.5-2.25-1.62-2.97-1.5-4.34-1.5-7.75h7v-6l2 2 1-6z"/><path fill="#225494" d="M200 571h3l1 4h10c3.22 6.84 3.22 6.84 4 9l-1 2h6l1 2h-2v4h3v2l2 1c-8.2.629-14.9-1.13-22.6-3.81-1.09-.356-2.18-.713-3.31-1.08-5.95-2.02-5.95-2.02-8.13-3.11l-1-3h5v-7h3v-2h2v-2h-2v-2z"/><path fill="#1F5492" d="M750 271c2.78 1.8 3.75 2.74 4.8 5.82l-2 2c-.4 2.32-.74 4.66-1 7l-1.21-1.49c-2.31-1.94-3.51-1.83-6.48-1.7l-2.45.082-1.86.105-1-3c-3.01-1.23-3.01-1.23-6-2v-2l-6 1c1.2-3.43 2.36-5.53 5-8-6.21-.828-12.1-1.04-18.4-.84-2.6-.16-2.6-.16-5.6-2.16v-2c14-4.67 29.7.955 42.2 7.18z"/><path fill="#1F5699" d="m275 3 1 1c2.01.396 4.04.743 6.06 1.06 1.1.177 2.21.353 3.35.535l2.59.402v2h-2l-.625 1.94c-1.38 2.06-1.38 2.06-4.5 2.81l-2.88.25v2h-5l2-2h-16v2l-1.73-.453c-2.19-.529-4.37-.935-6.6-1.3l-2.42-.4-2.5-.408-2.55-.42c-2.07-.341-4.14-.679-6.2-1.02v-2c21.7-5.48 21.7-5.48 30-5.86 6.9-.495 6.9-.495 7.96-.141z"/><path fill="#E2B74B" d="M1251 287c2.31-.188 2.31-.188 5 0 1.02.979 2.02 1.98 3 3 2.61.722 2.61.722 5 1v3h2v3h2l-1 6h-3c.206.598.412 1.2.625 1.81.375 2.19.375 2.19-1.62 5.19l-3-1 2.38 1.88c2.62 2.12 2.62 2.12 4.62 4.12l3 1v1h3v2l2 1-2.81-.125c-3.35-.146-3.35-.146-6.19 2.12l-2-6h-3c-1.32-1.79-1.32-1.79-2.69-4.19-3.6-5.72-7.95-8.69-14.3-10.8v-2c.598.186 1.2.371 1.81.562 2.35.658 2.35.658 5.19-.562l1-8-3 1 2-5z"/><path fill="#E4B347" d="M614 238c2.05 2.26 3.45 3.92 4.5 6.75l-1.94.312-2.06.688-1 3h-5l3-2c-.577.144-1.15.289-1.75.438-2.08.521-4.17 1.04-6.25 1.56l-.688-1.94c-1.13-2.29-1.13-2.29-3.62-2.69-.887-.124-1.77-.248-2.69-.375-1.16-.567-1.16-.567-2.34-1.14-3.42-1.1-4.63-.405-7.84 1.08-5.64 2.29-9.91 2.24-15.8 1.06l1-3-3-1c4.37-.722 8.75-1.43 13.1-2.14 1.48-.24 2.97-.482 4.45-.728 22.9-3.78 22.9-3.78 27.9.114z"/><path fill="#E4B246" d="M294 136h2l1 3v-3h2l.812 1.94c1.07 2.39 1.07 2.39 4.19 3.06 2.65 3.22 3.03 4.59 2.69 8.81-.227 1.05-.454 2.1-.688 3.19-5.62 1.12-5.62 1.12-9 0v8l8 2c-.25 2.38-.25 2.38-1 5-2 1.19-2 1.19-4 2l-1 2h-4c-1.53-5.24-2.2-8.59-1-14 .284-3.88-.385-6.47-2-10l-3 1-2-2 1-2h3v-4h2l1-5z"/><path fill="#225394" d="m667 340 5 1c.701 3.15 1 5.73 1 9h3v-4h2l-.125 3.38c-.286 3.67-.286 3.67 2.12 5.62l2-1v2l2 1v4l-3 1c-.908 2.48-1 4.34-1 7-2 0-2 0-3.62-1.5-.454-.495-.908-.99-1.38-1.5v2c-4.64-1.37-6.34-3.32-8.88-7.38-.616-.956-1.23-1.91-1.87-2.9-1.26-2.73-1.26-2.73-.953-5.08l.695-1.65h3l-2-2h-2v-2l4-2-4-2 3-1 1-2z"/><path fill="#1E5698" d="M898 277c7 7.63 7 7.63 7 11l3 1c1.65 2.6 2 3.86 2 7-1.75.75-1.75.75-4 1-2.25-1.94-2.25-1.94-4-4l1-1-2.44-.812c-.846-.392-1.69-.784-2.56-1.19l-1-3-3-1 1-2h-4v-3h-3l1 5-5 1 1-3-3 1v-2h3c-2.48-.99-2.48-.99-5-2v-6l-5-1v-2c1.75-.196 3.5-.381 5.25-.562l2.95-.316c5.93-.257 10.2 2.26 14.8 5.88z"/><path fill="#E2B74B" d="M1483 272c4.22 2.28 7.47 5.17 10.8 8.56.502.494 1 .989 1.52 1.5 3.67 3.69 3.67 3.69 3.67 5.94l1.73.711c2.78 1.58 4.44 3.49 6.52 5.91.706.817 1.41 1.63 2.14 2.48l1.61 1.9c-3.92 0-5.04-1.57-8-4-2.07-.149-2.07-.149-4 1v2h-2v-2c-5.07-.712-9.88-1.11-15-1v2l-2-1 1-4h2l-1-3 4-1 2-7c-3.11.669-3.11.669-4.19 3.06l-.812 1.94-1-5h2v-2h-2v-2h2l-1-5z"/><path fill="#DEB045" d="M267 250h7l1 3 2-1 1 8 3 1c-1.52 4.26-4.34 5.56-8 8-1.81 1.91-3.37 3.92-5 6l-2 2-2-2 1-3-1-3h-2c-1.12-4.75-1.12-4.75 0-7h2v-2h2c-.206-.908-.413-1.81-.625-2.75-.388-3.36-.179-4.49 1.62-7.25z"/><path fill="#E4B347" d="m1312 345 1 2 3 1c.557.351 1.11.701 1.69 1.06 3.52 1.43 6.53 1.12 10.3.938l2-1c1.43 2.35 2.09 3.48 1.62 6.25l-.625 1.75 3 2-2 1c.206.577.412 1.15.625 1.75.462 2.77-.196 3.9-1.62 6.25-2.97-1.12-5.33-2.22-8-4v-2h-2l-1 2h-4l-2 2-1-5 5-1c-.579-2-.579-2-2-4-3.04-1.29-3.04-1.29-6-2-.125-3.38-.125-3.38 0-7l2-2z"/><path fill="#225494" d="M728 276h5v2h2c1.12 5.62 1.12 5.62 0 9-5.42.369-5.42.369-8.38-1.5-.804-.743-.804-.743-1.62-1.5v2l-2.85-.176c-8.01-.662-8.01-.662-14.9 2.68-.742.825-1.49 1.65-2.25 2.5h-2l-.812-2.38c-1.04-2.91-1.04-2.91-4.19-4.62l1-5 1.72.254c5.03.664 9.23.537 14.3-.254 2.12.438 2.12.438 4 1 1.67.038 3.33.046 5 0l1-3h3v-1z"/><path fill="#E2B74B" d="M547 97c3.75 2.02 5.64 3.45 8 7-1 3-1 3-2 4a44.166 44.166 0 0 0-3 7l-4-1-1 2c-2.56.625-2.56.625-5 1-2.14-3.57-3.18-6.13-3-10.2v-3.75l-3-2c2.45-4.89 8.12-4.78 13-4z"/><path fill="#1F5699" d="M425 24c9.81 2.58 20.4 8.25 28 15 .25 2.69.25 2.69 0 5l-3 1-2-3c-1.98-.363-1.98-.363-4.12-.188L440 42l1 3h-2v-2h-2l-1 2-.25-2.88c-.401-3.23-.401-3.23-2.81-4.5l-1.94-.625 2-1c-4.45-1.98-4.45-1.98-9-4 1-3 1-3 2-4-.409-2.05-.409-2.05-1-4z"/><path fill="#1E5698" d="m775 316 1 4h2c3.18 6.95 2.59 14.6 1 22h-2l-1-2h-3l-1-4 4 1-2-2h-1l-1-9-11 1v-2h2v-2l-2.44-.875c-2.56-1.12-2.56-1.12-3.56-3.12 5.62-2 5.62-2 9-2l3-.5c3-.5 3-.5 6-.5z"/><path fill="#E2B74B" d="M491 137h2l.113 1.86.199 2.45.176 2.43c.594 2.62 1.47 3.57 3.51 5.26v-2l-2-1c5.33-5.77 5.33-5.77 9-6 2.56-.063 2.56-.063 5 1 1.36 2.55 2.14 5.24 3 8 .64 1.35 1.29 2.69 2 4-3.99 3.5-7.07 3.62-12.2 3.48-4.47-.782-6.99-3-9.77-6.48-2.32-3.93-2.26-7.49-2-12l1-1z"/><path fill="#E4B347" d="M294 237c2.47 2.47 2.26 3.93 2.27 7.31l-.023 2.06.023 2.04c-.014 3.65-.042 6.61-2.27 9.59-1.8 1.08-1.8 1.08-3.88 1.81-.678.254-1.36.508-2.05.77-2.36.476-3.81.164-6.07-.582.165-.557.33-1.11.5-1.69.545-2.52.563-4.74.5-7.31-.123-5.03.624-8.56 3-13h4v2l2 1 1-3 1-1z"/><path fill="#E4B346" d="m463 300 3.88.312 2.18.176c1.95.512 1.95.512 3.95 3.51 2.7 1.42 4.27 2.12 7.31 1.62.557-.206 1.11-.413 1.69-.625 1.42 4.26.779 7.89-1 12-3.12 1.56-3.12 1.56-6 2l1 3c-1.88.625-1.88.625-4 1-2.45-2.45-2.35-3.49-2.62-6.88l-.227-2.62c-.128-2.17-.148-4.34-.148-6.51h-2v3l-4-2v-8z"/><path fill="#E0B346" d="M614 245h5c.618 10.8.618 10.8-1.56 15.1-3.01 2.32-5.74 3.09-9.44 3.88l-1-3h-3v-5h-3c1.18-6.4 1.18-6.4 4.31-8.69 2.69-1.31 2.69-1.31 5-1 .557.227 1.11.454 1.69.688l-1 1 2 1 1-4z"/><path fill="#DFB146" d="M275 104c2.46-.054 4.92-.094 7.38-.125l2.12-.05c1.84-.018 3.67.072 5.51.175l2 2c3.08.167 3.08.167 6 0l1 2h-6l1 2h3l1 6 2-1-1 3h-3l-1-4h-5l-1 3-3-1c-1.22-.074-1.22-.074-3 1l-2-4-6 1c-1.12-2.19-1.12-2.19-2-5 .945-2.68.945-2.68 2-5z"/><path fill="#E0B146" d="M438 430v5h2v6l-7-1-1 7c-5.62 2.12-5.62 2.12-9 1v4h-5l-1 4c-3.06.544-5.89 1-9 1 .495-1.49.495-1.49 1-3l3-1 1-3c2.33-1 4.67-2 7-3l1-3-2-2 2.75-.875c3.13-.997 3.13-.997 5.44-2.25C429 438 429 438 432 438l.438-1.94C433 434 433 434 433.998 433v-2c3-1 3-1 4-1z"/><path fill="#205598" d="M48 248h2c-1.46 10.7-3.19 21.4-5 32h-3c-.976-2.93-1.08-4.96-1-8h-4v-10h2l.438-3.94c.438-3.94.438-3.94 1.56-5.06 1.67-.04 3.33-.043 5 0l2-5zM1045 364h1c1.34 6.86 1.91 14-1.94 20.1-3.3 3.1-5.25 3.05-9.69 3l-3.04-.027-2.34-.035c0-3 0-3 1-4 2.33-.041 4.67-.043 7 0l-3-1 .875-2.06c1.25-3.27 2.2-6.57 3.12-9.94l1.88-.25c2.3-.556 2.3-.556 3.31-2.75l.812-2 1-1z"/><path fill="#E0B245" d="M1240 289h5l-2 1v2l9-1c.125 5.75.125 5.75-1 8h-2l-1 2-1.71-.493c-2.37-.526-4.44-.627-6.87-.621h-2.73l-2.92.016-3.01.004c-3.17.006-6.34.018-9.51.031l-6.45.014c-5.27.01-10.5.028-15.8.049v-1c13-1.3 26-1.1 39-1l-1-5 3-1v-3z"/><path fill="#205596" d="M735 279h5c.495 1.49.495 1.49 1 3 2.02.733 2.02.733 4 1v2l2 1h-3v4h-4v4c-6-2-6-2-7.8-2.8-7.78-3.19-15.9-2.46-24.2-2.2l1-3c5.45-1.06 10.7-1.78 16 0l-1-3h7l-4 2c2.71 1.35 5.01 1.07 8 1v-7z"/><path fill="#1F5699" d="M713 367c1.79.114 3.58.241 5.38.375l3.02.211c2.6.414 2.6.414 4.6 2.41h-3v2l7 2-1 5c-4.01 1.34-7.82 1.2-12 1l-2-2c-1.65-.707-3.32-1.38-5-2l3-2c-.186-.598-.371-1.2-.562-1.81-.438-2.19-.438-2.19.562-5.19z"/><path fill="#E1B446" d="M358 327c2.28 2.28 2.97 3.51 3.19 6.75l-.188 2.25 5 1-1 7c-4.14 1.59-4.14 1.59-7 1-3.43-3-6.22-6.41-9-10l2-2c.167-2.58.167-2.58 0-5 2.49-.687 4.38-1 7-1z"/><path fill="#E3B346" d="M1195 214h28c-.99 1.49-.99 1.49-2 3-2.64.336-2.64.336-5.81.375-5.09.24-5.09.24-9.25 3.19l-1.94 2.44h-3l-1 5-1-2h-4c-1.06-3.38-1.21-4.58.438-7.81.516-.722 1.03-1.44 1.56-2.19h-2v-2z"/><path fill="#205595" d="M972 323c2.87.573 3.86.861 6 3l2-1c1 3 1 3 0 6h4v2h2l.188 2.38L987 338c2.48 1.37 2.48 1.37 5 2v2l4 1 1 4h2v2c1.95.591 1.95.591 4 1l1-1 2 1-1 5-2-1v3c-3.56-1.19-4.2-2.28-6.38-5.25-2.67-3.55-5.44-6.64-8.62-9.75-3.04-3.3-6.02-6.65-9-10-.705-.789-1.41-1.58-2.14-2.39-.636-.717-1.27-1.43-1.93-2.17-.568-.641-1.14-1.28-1.72-1.94C972 324 972 324 972 323z"/><path fill="#E4B346" d="m409 203 3 2-1 2 4-1-1 3h-2l1 3-1 2c-.04 1.67-.044 3.33 0 5l1.81-.688c1.08-.155 1.08-.155 2.19-.312 1.75 1.44 1.75 1.44 3 3h-2v4l2 1-3 1 1 2h-4v-4l-6 1v-5l2-1 1-3h-2v-4l-3-1 3-3 1 1 1-3h-7v-2l-3 1-1-2 6.05.098c2.03.028 2.03.028 3.95-1.1z"/><path fill="#DFB246" d="m107 356 4 2v2l1.62-1c3.08-1.3 5.05-1.4 8.38-1 3.38 1.56 3.38 1.56 6 4 .375 3.75.375 3.75 0 7l-4-1-1-4-7 2 1 1-1 3c-2.06.688-2.06.688-4 1-.67-2.12-1.34-4.25-2-6.38-.371-1.18-.743-2.37-1.12-3.59-.875-3.04-.875-3.04-.875-5.04z"/><path fill="#205598" d="M192 25c.981 3.05.981 4.95 0 8h5c-2 2-2 2-4.62 2.12l-2.38-.125-1 2-2-2-2 2c-2.62.125-2.62.125-5 0v-3l-8 1c1-3 1-3 4.24-4.82 1.35-.632 2.71-1.25 4.07-1.86.677-.32 1.35-.641 2.05-.971 3.5-1.61 5.72-2.34 9.63-2.34z"/><path fill="#E4B346" d="m456 187 3 1-1 1 2 1c-.06 1.46-.149 2.92-.25 4.38l-.141 2.46c-.609 2.16-.609 2.16-2.47 3.45-3.85 1.28-8.11.711-12.1.711l-1-5 4-2 1 1v-3l-4-1 3-1 1-2 7 2v-3z"/><path fill="#E4B247" d="M391 179c2.25 1.94 2.25 1.94 4 4h-2v2h2v5l-4 1 1 3-6 1v2c-1.88-.562-1.88-.562-4-2-1.25-3.62-1.25-3.62-2-7h3l1-2c.619.351 1.24.701 1.88 1.06.701.309 1.4.619 2.12.938l2-1-4-1 1-6c1.75-.75 1.75-.75 4-1z"/><path fill="#205597" d="m382 12 1.67.465c2.53.582 4.99.86 7.58 1.1l2.7.254 2.05.184 1-2 4 1v2c-2.88.961-4.7 1.11-7.69 1.06l-2.45-.027L389 16v2c1.99.381 3.99.713 6 1l1-1c2.33-.04 4.67-.042 7 0l1 3h-2l-1 2v-2l-2.88.562C395 22 395 22 393 21l-1 2c-4.15-.239-6.36-.427-9.5-3.25C381 17 381 17 381.25 14.19c.248-.721.495-1.44.75-2.19z"/><path fill="#E1B346" d="M1581 268c2.02 1.61 2.02 1.61 4 4 .172 3.02.172 3.02-.25 6.25l-.391 3.27L1584 284l-5 1-.312-1.94L1578 281c-3.69-1.23-6.21-.644-10 0-.201-3.63.142-5.87 2-9 6.88.875 6.88.875 8 2l2 1 1 3v-10z"/><path fill="#E4B347" d="m1566 327 2 1c.058 4.54.094 9.08.125 13.6l.05 3.89.02 3.77.032 3.46c-.237 3.39-1.02 6.09-2.23 9.25-2.4-2.4-2.34-3.33-2.62-6.62l-.227-2.48-.148-1.9 2 1v-4l-2 2-1-5h-1v-5h2l3-13z"/><path fill="#205598" d="M466 544h8c1.63 3.26.928 6.55 0 10-3.09 2.86-6.99 2.07-11 2l-2 1-2-6c2.38-1.56 2.38-1.56 5-3l2 1v-5z"/><path fill="#205294" d="M1032 263c3.34-.074 5.8-.066 9 1l1 3-1.94.75c-2.25 1.07-2.25 1.07-2.81 3.38l-.25 1.88-6 1 1 2h-2v2l2 1-4 2c-.09-1.03-.09-1.03-.184-2.08l-.254-2.73-.246-2.71c-.251-2.61-.251-2.61-1.32-5.48 3.75-3 3.75-3 6-3v-2z"/><path fill="#225394" d="M746 282c1.94.188 1.94.188 4 1 1.25 2.06 1.25 2.06 2 4l-2 1 3 3-3 1 1 3-1 1 2 2c-7.75.125-7.75.125-10-1v-2h-2l-1-5 3-1 2 1 .438-3.44C745 283 745 283 745.998 282z"/><path fill="#E0B346" d="M1353 282c1.45.03 1.45.03 2.94.063l1 3c2.5 1.7 2.5 1.7 5 3-3.27 2.84-6.87 4.33-10.8 6.02-2.53 1.14-4.87 2.48-7.2 3.98l1-3v-3l1.44-1.88c1.77-2.41 2.09-4.21 2.56-7.12 1-1 1-1 4.06-1.06z"/><path fill="#DEB045" d="M265 388c2.06.438 2.06.438 4 1v2l2 1v1l2.19-.688c2.81-.312 2.81-.312 5.62.875.722.598 1.44 1.2 2.19 1.81v4h-3l-1 3-2-2-2 2-2-2-2.12-1.5-1.88-1.5v-2l-4-2c.875-3.88.875-3.88 2-5z"/><path fill="#E2B74B" d="M1245 364c7.56-.291 7.56-.291 11 2l2 2-3.88.625c-2.2.46-2.2.46-4.12 1.38-1.61 2.99-1.61 2.99-2 6-2-.667-4-1.33-6-2v2l-5-1-1-3 5-1v-2l3-1c.733-2.02.733-2.02 1-4z"/><path fill="#E4B347" d="m330 248 1 4h2l-1 6h2l.75 1.88c1.07 2.28 1.07 2.28 3.31 3.12l1.94 1c.625 2.06.625 2.06 1 4l2 1-5 1v-2c-.743-.268-1.49-.536-2.25-.812-2.64-1.14-4.61-2.28-6.75-4.19v-2h-2c.549-4.57 1.42-8.67 3-13z"/><path fill="#E2B74B" d="m1489 299 6 2v3l1.88.562c3.18 2.15 3.32 4.81 4.12 8.44l-2 1c-2.37-.92-4.7-1.93-7-3-.763-.268-1.53-.536-2.31-.812-2.6-1.83-2.91-4.21-3.69-7.19h2l1-4z"/><path fill="#E0B346" d="m1328 326 4 2v11l-3 1v3l-3 1v-2h-4c1.88-3.88 1.88-3.88 3-5l-.5-2.81c-.458-2.92-.688-4.51.5-7.19l3-1z"/><path fill="#205595" d="M453 40c3.51 1.9 5.9 3.57 8 7v2h-6v-4l-7 2v2c-3.29 1.1-4.71.8-8 0-1-3-1-3 0-7l9-1 2 3 2-4z"/><path fill="#1A4982" d="m718 263 3.93-.008c3.36.12 6.47.49 9.76 1.13l2 6-2-1c-6.2-.9-12.1-1.04-18.4-.84-2.6-.16-2.6-.16-5.6-2.16v-2c3.59-1.2 6.53-1.13 10.3-1.12z"/><path fill="#205595" d="M59 481c3.12.486 6 .999 9 2l1 2c2.53.656 2.53.656 5 1-.351.619-.701 1.24-1.06 1.88-.309.701-.619 1.4-.938 2.12l1 2c-.99 1.49-.99 1.49-2 3-4.19-1.34-6.18-2.94-8.81-6.44-.605-.782-1.21-1.56-1.83-2.37-1.36-2.19-1.36-2.19-1.36-5.19z"/><path fill="#205594" d="M796 312c2.74 3.09 3.34 4.9 3.12 9-.178 3.52-.178 3.52.391 6.96.634 2.67.381 4.94.109 7.66l-.273 2.91c-.352 2.46-.352 2.46-1.35 4.46h-2c-1.17-5.56-1.15-11-1.12-16.6l-.012-2.85.004-2.75.004-2.49c.126-2.22.513-4.15 1.13-6.29z"/><path fill="#E2B74B" d="M1309 352c1.48.99 1.48.99 3 2 1.99.39 3.99.732 6 1 .382 1.66.714 3.32 1 5-1 1-1 1-3.56 1.06l-2.44-.063-1 9h-2c-2.48-3.71-2.24-5.71-2.19-10.1l.02-3.82c.168-3.05.168-3.05 1.17-4.05z"/><path fill="#215395" d="m65 168 2 3-1 3 4-2v-2h2l-.063 2.38c-.123 2.61-.123 2.61 1.06 4.62h-2v10h-2v-3l-8-2v-3l3-2c.168-3.5.168-3.5 0-7l1-2z"/><path fill="#E2B74B" d="m1314 367 1.19 1.44c2.22 1.91 3.95 2.18 6.81 2.56l1 4-3 1v2h-3v5c-2.25.75-2.25.75-5 1-2.31-1.44-2.31-1.44-4-4-.331-2.76-.186-5.2 0-8l3 1 1 6c2.04-1.36 2.04-1.36 4-3v-2l-3-1 1-6z"/><path fill="#E1B346" d="M1583 310h1c1 5.81 1.13 11.4 1.1 17.3l-.004 2.93c-.006 3.07-.018 6.13-.031 9.2l-.014 6.26c-.01 5.1-.028 10.2-.049 15.3h-1c-.507-4.5-1-9-1.5-13.5-.143-1.27-.286-2.54-.434-3.84-.684-6.26-1.26-12.4-1.07-18.7l2 1v-16z"/><path fill="#DEB045" d="M248 271h8c.688 1.75.688 1.75 1 4-1.44 2.25-1.44 2.25-3 4h2c-1 2-1 2-3 3l-1 1c-2.33.04-4.67.042-7 0 .857-8.57.857-8.57 3-12z"/><path fill="#C1973C" d="m589 239 2 3c-7.41 3.28-13 4.6-21 3l1-3-3-1c2.94-.53 5.87-1.05 8.81-1.56l2.53-.459 2.43-.42 2.24-.397c1.99-.162 1.99-.162 4.99.838z"/><path fill="#E1B346" d="M350 108c6.05.432 11.3 1.91 17 4v2l-3.25-.063c-2.94.05-4.98.345-7.75 1.06l-2-1v2h-4l-2 4-2-1c.571-3.31 1.55-4.75 4-7l1-2-2-1 1-1z"/><path fill="#E2B74B" d="m1224 369 2.38-.043c2.06.23 2.06.23 4.06 2.23l-3 1v2h3v2l-6 2-2-2v-1l-1.9.105-2.48.082-2.46.105-2.16-.293-2-3c4.29-1.74 7.9-3.15 12.6-3.19z"/><path fill="#E0B346" d="m206 439 4 1-2 13h-3l1-2-1-1c-3.78-.298-3.78-.298-6 1l-3-6 4-1-1-2 3 1v2h2l2-6z"/><path fill="#E4B346" d="m208 239 4 1c.75 3.25.75 3.25 1 7a88.757 88.757 0 0 1-4 4c.14 2.71.14 2.71 1 5l-2 1v-2l-2.44-.938c-2.56-1.06-2.56-1.06-3.56-2.06-.04-1.67-.043-3.33 0-5l6-2v-6z"/><path fill="#E0B247" d="M409 300h5c.196 1.44.381 2.87.562 4.31l.316 2.43c.121 2.26.121 2.26-.879 5.26-2.25.312-2.25.312-5 0-2.72-2.57-3.92-4.05-4.25-7.81l.25-2.19 3 1 1-3zM301 387l1 2h6c1.86 3.13 2.2 5.37 2 9l-4-1v-2l-2.81.125C300 395 300 395 297 393.005l-2-1 1-1-2-2c2.65-1.46 3.89-2 7-2z"/><path fill="#1F5699" d="M1039 267c2.5.188 2.5.188 5 1 2.15 3.23 2.27 4.21 2.25 7.94l.016 2.59c-.278 2.59-.96 4.24-2.27 6.47l-1-5h-1l-1-4-2 2c-1.85-3.12-2.38-5.38-2-9l2-2z"/><path fill="#E4B247" d="M578 246c2.69.176 5.33.618 8 1v2l2 1c0 4 0 4-1 6-3.82.778-6.27 1.24-10 0-.027-1.48-.046-2.96-.063-4.44l-.035-2.5c.098-2.07.098-2.07 1.1-3.07z"/><path fill="#225394" d="M255 584v2h2v3c-3.13 1.04-3.99.934-7 0l1 2c2.53.656 2.53.656 5 1v1h-6v2h5v1c-4.55.178-7.88-.002-12-2l2-4h3l-1-5c2.76-.597 5.16-1 8-1z"/><path fill="#E1B346" d="M1244 359v1c-4.14 1-8.01 1.12-12.3 1.1l-2.06-.004c-2.16-.006-4.32-.018-6.48-.031l-4.41-.014c-3.59-.01-7.18-.028-10.8-.049l-1 2-3-2v-2c4.57-.169 9.14-.329 13.7-.482 1.55-.053 3.11-.108 4.66-.166 2.24-.082 4.48-.157 6.72-.23l2.08-.083c4.43-.135 8.48.227 12.8.961z"/><path fill="#205595" d="M933 271c2.41 2.5 2.98 3.79 3.25 7.3l-.175 3.87-.08 2.07c-.088 2.17-.197 4.34-.307 6.51-.063 1.48-.125 2.95-.186 4.43-.151 3.61-.321 7.22-.502 10.8-3.16-3.42-3.37-5.83-3.33-10.4l.016-3.75c.02-1.29.04-2.58.062-3.9l.016-3.92c.08-9.56.08-9.56 1.23-13z"/><path fill="#1F5699" d="m284 603 4 .02c2.8.132 4.91.446 7.57 1.17 1.42.042 2.83.04 4.25 0 4.35-.058 8.45.374 12.8 1l-1 2c-27.8.285-27.8.285-38-2 3.62-2.41 6.26-2.26 10.4-2.19zM166 83v2c-2.27 1.62-2.27 1.62-5.25 3.44-4.09 2.5-4.09 2.5-7.98 5.29-1.77 1.28-1.77 1.28-3.77 1.28l1-5h3l1-2-2-2c5.14-3.28 8-4.5 14-3z"/><path fill="#E1B346" d="M1574 285h3l1 2 2-1 2 3 2-1v6l-4-2-1 5-6-1 .5-2.12c.524-3.01.571-5.82.5-8.88z"/><path fill="#DEB045" d="M351 284h2v2h2l2 4 4-2c.911 3.07 1.09 5.8 1 9l-7-1-1-3 1-2h-2l-1 2c-2.09-4.43-2.09-4.43-1.62-7.31.206-.557.413-1.11.625-1.69z"/><path fill="#81692C" d="M1215 271c3.97-.05 7.93-.086 11.9-.11 2-.015 4-.04 6-.066 7.04-.035 13.3.282 20.1 2.18l1 4h-8v-2l-5-1v-1c-12.9-.495-12.9-.495-26-1v-1z"/><path fill="#DEB045" d="M317 122c2.06 2.19 2.06 2.19 4 5-.25 2.81-.25 2.81-1 5l-7 2c-1-1-1-1-1.12-4.38.125-3.62.125-3.62 1.12-6.62 2.06-.688 2.06-.688 4-1zM381 358l3 1-2 2c.454.33.908.66 1.38 1 2.47 3.04 2.81 6.19 3.62 10-2.67-.152-4.44-.447-6.38-2.37-1.23-1.53-2.43-3.08-3.62-4.63l-2-1c1-3 1-3 3-4.12l2-.875 1-1z"/><path fill="#E2B74B" d="M1286 306c4.54 3.82 5.11 9.38 6 15 .318 5 .185 10 0 15h-1l-1-5h-1c-.925-4.72-1.23-7.67 1-12l-3-1c-.169-1.44-.335-2.87-.5-4.31l-.281-2.43C1286 309 1286 309 1286 306z"/><path fill="#1F579A" d="M7 293c2.48.99 2.48.99 5 2l-1 3 1 1c.312 2.38.312 2.38 0 5-2 1.81-2 1.81-4 3l-3-2c-.429-4.55.008-7.89 2-12z"/><path fill="#E0B346" d="M581 263c2.76.023 2.76.023 6.12.375 5 .472 9.86.723 14.9.625v2c-7.73 1.36-15.1 2.32-23 2 0-3 0-3 2-5z"/><path fill="#E2B74B" d="m471 194 5 1 .312 1.94L477 199l3 1 1 6-5 1-1-3h-2l-2-10z"/><path fill="#1F579A" d="M1045 317h1v42l-2-1v-19h-1c-.098-6.15-.098-6.15 0-8l1-1c.235-2.18.414-4.37.562-6.56l.254-3.63.184-2.81z"/><path fill="#E0B346" d="m438 298 4 1v2l5-1 1 2 2-1v5l-5 1v-3l-2 1v2c-1.81 1.06-1.81 1.06-4 2l-3-1-1 2c.576-2.39 1.22-4.67 2-7 .348-1.66.684-3.33 1-5z"/><path fill="#E2B74B" d="m234 117-1 3h2v7c-3.01.934-3.87 1.04-7 0l.125-2.81c.146-3.35.146-3.35-2.12-6.19 2.93-.976 4.96-1.08 8-1z"/><path fill="#E4B346" d="M1264 348c2.58 2.58 2.62 4.44 3 8-1 1-1 1-2.81 1.44-3.9 1-6.48 2.58-9.19 5.56-2-3-2-3-2-6h2v2h2v-2h2v-2l-2-1c3-2 3-2 6-2l1-4z"/><path fill="#E3B84C" d="M1209 245h2c1.25 2.5 1.11 4.21 1.1 7.01l-.01 2.99-.025 3.13-.014 3.15c-.012 2.57-.028 5.15-.049 7.72l-2-1v-11l-4-1c.547-3.37 1.05-5.08 3-8v-3z"/><path fill="#E4B346" d="M298 211h1c.369 16.7.369 16.7-2 25l-1-4h-2c-.301-5.83.224-8.78 3-14 .714-3.74.714-3.74 1-7z"/><path fill="#E0B246" d="M504 337h2c.438 6.13-.387 11.4-1.88 17.3-.174.694-.347 1.39-.526 2.1-.892 3.4-1.85 6.53-3.6 9.59-.231-6.23.388-12 2-18l1-1c.046-1.5.038-3 0-4.5s-.046-3 0-4.5l1-1z"/><path fill="#CBA23F" d="M1576 263c-.188 2.38-.188 2.38-1 5-4.26 2.84-8.21 1.81-13 1 5.04-5.17 6.76-6.13 14-6z"/><path fill="#DBB149" d="M148 177c2.47.99 2.47.99 5 2l-2 1c-.082 3.04.024 5.07 1 8-2.38.125-2.38.125-5 0l-4-4c1.52-2.63 2.84-4.84 5-7z"/><path fill="#DFB146" d="m499 340 2 1c-.607 7.4-.607 7.4-2.31 10-1.69 1-1.69 1-5.69 1v-9l2 1 4-4z"/><path fill="#E5B347" d="M249 244c0 3.7-.736 6.52-2 10-1.88 1.5-1.88 1.5-4 2-2.25-.375-2.25-.375-4-1v-2h2l1-4h2v-2h2v-2l3-1z"/><path fill="#E3B74B" d="m1204 214 2.65.016 2.86.01 3.01.025 3.02.014c2.47.012 4.94.028 7.42.049-.99 1.49-.99 1.49-2 3-2.71.277-5.17.372-7.88.312l-2.18.01c-3.79-.04-6.73-.214-9.94-2.32 1-1 1-1 3.04-1.11z"/><path fill="#E4B346" d="M459 203c3.19-.312 3.19-.312 6 0-.875 4.88-.875 4.88-2 6l-1.31 1.56C460 212 460 212 456 212v2l-2-1c2.6-7 2.6-7 5-10zM292 473l8 1c1.12 5.62 1.12 5.62 0 9-4.75-1.88-4.75-1.88-7-3-.407-2.32-.744-4.66-1-7z"/><path fill="#1F5699" d="M752 339h5c1.12 3.75 1.12 3.75 0 6l4 1 1 4-8-1c-1.6-3.51-2.22-6.14-2-10z"/><path fill="#1F5695" d="M935 332v23c-3-3-3-3-3.34-5.08l.048-2.36.029-2.57.076-2.67.041-2.71c.035-2.2.085-4.4.146-6.61 2-1 2-1 3-1z"/><path fill="#225494" d="m692 281 1 2h2c.381 1.99.713 3.99 1 6-1 1-1 1-2.85 1.1l-6.15-.098 1-7h4v-2z"/><path fill="#E1B346" d="m424 331 8 1c.201 3.72.152 4.77-2 8h-4l-.312-1.88c-.563-2.49-.563-2.49-3.69-4.12h2v-3z"/><path fill="#1E4984" d="M866 313h21c-.99 1.49-.99 1.49-2 3-2.92.303-5.58.418-8.5.375l-2.38.035c-2.28-.012-2.28-.012-6.12-.41l-2-3z"/><path fill="#1F5699" d="M1 289c2 3.75 2 3.75 2 6h2c-.497 4.97-1.55 8.64-4 13H0c-.027-2.98-.047-5.96-.063-8.94l-.025-2.58-.01-2.45-.016-2.27c.114-1.77.114-1.77 1.11-2.77z"/><path fill="#E1B346" d="M230 182c2.26 1.4 4.02 3.2 6 5-4.31 3.57-7.55 3-13 3l2-6 2 2-1 2h3l-2-5 3-1z"/><path fill="#E3B74B" d="m158 373 1 3h2l1 3c-1.19 1.5-1.19 1.5-3 3-2.69.188-2.69.188-5 0-1.12-5.75-1.12-5.75 0-8 2.06-.625 2.06-.625 4-1z"/><path fill="#205598" d="M43 305h1c1.19 19.3 1.19 19.3 1 29l-3-1c-.704-4.07-1.07-7.04 0-11 .139-1.37.244-2.74.316-4.11l.127-2.29.119-2.36.131-2.4c.106-1.95.207-3.9.307-5.85z"/><path fill="#D1A946" d="M1515 302c2.88.688 2.88.688 6 2 1.38 2.62 1.38 2.62 2 5-1.12 1.5-1.12 1.5-3 3-3.19.188-3.19.188-6 0l3-4-2-1v-5z"/><path fill="#E4B346" d="m226 157 6.15.098-1 2 2 2-4 4c-1.94-.063-1.94-.063-4-1-1.25-3.06-1.25-3.06-2-6 1-1 1-1 2.85-1.1z"/><path fill="#E3B74B" d="M254 319c4.28 2.51 6.65 4.12 8 9l-1.81.312c-2.47.776-3.51 1.76-5.19 3.69 0-3 0-3 1-5-.936-2.36-1.93-4.7-3-7l1-1z"/><path fill="#215497" d="M717 276c1.44-.054 2.87-.093 4.31-.125l2.43-.07c2.26.195 2.26.195 5.26 2.2-5.36 2.26-9.2 3.36-15 3l-1-3h4v-2z"/><path fill="#205597" d="m16 259 4 1c1.29 7.43 1.29 7.43 0 11h-2v4l-2-1c-1.51-6.14-1.51-6.14.438-9.44l1.56-1.56h-2v-4z"/><path fill="#E4B346" d="M210 223c3.04.329 4.64.671 6.94 2.75 1.06 2.25 1.06 2.25.25 5-.392.743-.784 1.49-1.19 2.25l-2-2a89.763 89.763 0 0 0-6-1l2-7z"/><path fill="#225395" d="m811 283 1 2c2.02.652 2.02.652 4 1v3c-1.3 1.04-2.64 2.04-4 3-.99 1.49-.99 1.49-2 3v-4h-3c.599-3.36 1.85-5.38 4-8z"/><path fill="#AF8B37" d="M600 236h10l-1 3 3 1-5 4-1-2h-2l-.875-1.88c-1.06-2.26-1.06-2.26-3.12-4.12z"/><path fill="#E1B446" d="M1227 217c1.92-.054 3.83-.093 5.75-.125l3.23-.07c2.94.19 4.54.669 7.02 2.2l-2 1-1 3-4-3-1 2c-5.75-1.62-5.75-1.62-8-5z"/><path fill="#215395" d="M83 122h3l1 4 1-4 3 1c1.22 2.96.965 5 0 8l-7-2-1-7z"/><path fill="#1F579A" d="M161 51v3l2 1h-4l-2 4v-3l-8-1 3-1v-2c3.35-2.11 5.22-2.05 9-1z"/><path fill="#E1B346" d="m450 306 9 1v3l-4 1-1 4h-4c-1.12-6.75-1.12-6.75 0-9zM369 124h3v3c2.48.99 2.48.99 5 2v2h2v2h-8l-2-9z"/><path fill="#205695" d="M385 41h9l2 4h-2l1 4h-5c0-2 0-2 2-4h-7v-4z"/><path fill="#205698" d="M756 277v2l3 1-1 3v-2h-2l-1 2 1 3-6 3v-3l2 1v-9c2-1 2-1 4-1z"/><path fill="#CCA340" d="M593 237c1.46-.054 2.92-.093 4.38-.125l2.46-.07c2.16.195 2.16.195 4.16 2.2v3l2 1h-7v-2l-3-1c-1.69-1.56-1.69-1.56-3-3z"/><path fill="#E1B446" d="M270 416c2 3 2 3 2 6-1.5 1.69-1.5 1.69-3 3l-2-1 1-3-2.88-.375C262 420 262 420 260 418.005c5.75-1 5.75-1 8-1v2h2v-3z"/><path fill="#1F5699" d="M867 372h2v8l-2-1c-1.68.279-3.35.608-5 1l-1-7c2.17.506 4 1 6 2v-3z"/><path fill="#E4B346" d="m436 351 3 1 1 9h-5l1-3-3-1c0-2.83 1.11-4.11 3-6z"/><path fill="#E0B247" d="M372 335v3l-3 1v2l3 1c.688 2.06.688 2.06 1 4l-5 1c-1.84-3.78-2.16-5.95-1-10l1.94-.438c2.04-.373 2.04-.373 3.06-1.56z"/><path fill="#225394" d="m818 286 4 1-2 7 1-2h2l1 4c-1.62.027-3.25.046-4.88.063l-2.74.035C814 296 814 296 812 294.998l1-2 6 1c-.351-.95-.701-1.9-1.06-2.88-.938-3.12-.938-3.12.063-5.12z"/><path fill="#E2B74B" d="m1463 266 2 1c1.54.07 3.08.085 4.62.063l2.48-.028 1.9-.035-2 2h-4l-1 5h2l-1 4-3-2c-.188-3.62-.188-3.62 0-7l-3-1 1-2z"/><path fill="#E2B247" d="M343 141h1c1.11 6.87.701 12.3-1 19h-1c-.847-5.08-1.09-9.85-1-15h2v-4z"/><path fill="#E3B84C" d="m1308 372 3 1c.73 2.07.73 2.07 1.19 4.56l.48 2.5c.11.638.219 1.28.332 1.93l3-2 1 3c-2.25.75-2.25.75-5 1-2.31-1.44-2.31-1.44-4-4-.331-2.76-.186-5.2 0-8z"/><path fill="#E4B247" d="M263 207c2.16 3.25 2.2 4.27 2 8v3l-3 1-2-1v-4h2v-2l-2-1v-3l3-1z"/><path fill="#E4B346" d="m397 143 7 1c.382 1.66.714 3.32 1 5-1 1-1 1-3.56 1.06-1.21-.03-1.21-.03-2.44-.063-1.1-2.19-2-4.51-2-7z"/><path fill="#205597" d="M369 5c10.6.779 10.6.779 15 3l-1 3-1.71-.445c-1.53-.37-3.07-.698-4.62-.984l-2.36-.445-2.39-.43-1.93-.695-1-3z"/><path fill="#E4B247" d="m301 387 1 2h5c-2 3-2 3-4.38 3.51l-2.74.176-2.76.199-2.12.113 1-2-2-2c2.65-1.46 3.89-2 7-2zM308 470h4l-1 9-4-1c-.625-2.88-.625-2.88-1-6l2-2z"/><path fill="#DEB045" d="M1582 369h1l1 13-3 1-1 2v-2l-4-1 1-4 1 2h2v-2h2v-9z"/><path fill="#E3B84C" d="M1204 359c16.3.495 16.3.495 33 1v1h-29l-1 2-3-2v-2zM1262 312c3 1 3 1 5 3l3 1v1h3v2l2 1-2.81-.125c-3.35-.146-3.35-.146-6.19 2.12l-2-6h-2v-4z"/><path fill="#1F5699" d="m694 273-1 3-10 1-1-3c4-2.83 7.43-1.76 12-1z"/><path fill="#E5B347" d="M391 217c2.44.688 2.44.688 5 2 .625 2.44.625 2.44 1 5 1.46 1.79 1.46 1.79 3 3l-3 1-2-2v-3l-5-1 1-5z"/><path fill="#205595" d="m112 121 3 3c-1.38 4.14-3.6 5.32-7 8l-2-2c.474-.577.949-1.16 1.44-1.75 1.53-2.2 1.95-3.7 2.56-6.25l2-1z"/><path fill="#E0B346" d="m420 316 1 4c-2.92 1.95-4.63 2.45-8 3l-1-5c3.23-2.15 4.28-2.2 8-2z"/><path fill="#E0B247" d="M269 122v4l-3 2c-.99 1.49-.99 1.49-2 3h-2c-1.33-5.45-1.33-5.45.125-7.88 2.41-1.45 4.11-1.35 6.88-1.12zM274 115h3v2l2 1c0 4 0 4-1 6-4-1.33-4.84-3.5-7-7h3v-2z"/><path fill="#E0B246" d="M587 412h10v3c-2.41 1.2-3.95 1.1-6.62 1.06l-2.48-.027-1.9-.036 1-4z"/><path fill="#E3B84C" d="M1269 321h6v5l-5 2c-1.06-1.81-1.06-1.81-2-4l1-3z"/><path fill="#E1B446" d="M1327 294h2v2l3 1-1 1c-.368 2.33-.702 4.66-1 7l3 1c-1 1-1 1-4.06 1.06l-2.94-.063c.351-1.09.701-2.19 1.06-3.31 1.27-3.6 1.27-3.6-.063-6.69v-3z"/><path fill="#215395" d="M76 117h8c-1 2-1 2-3 4l-3 1 3 2 1-2v3h-8l2-1-.562-2.38C75 119 75 119 76 117z"/><path fill="#205598" d="M443 558v2l-1.94.938c-2.88 1.48-4.14 3.47-6.06 6.06l-3-2c.063-1.81.063-1.81 1-4 3.5-1.81 6.04-3 10-3z"/><path fill="#E5B347" d="M129 245c2.01.23 2.01.23 5.01 2.23l-1.88.875c-2.26 1.06-2.26 1.06-4.12 3.12l-2-3-1 4-.375-1.88c-.497-2.32-.497-2.32-2.62-4.12 1.88-1.88 4.5-1.18 6.99-1.23zM282 112l1 5c-3.75 1.12-3.75 1.12-6 0v-2l-4-1c3.44-2.29 4.99-2.18 9-2z"/><path fill="#E0B247" d="M261 373c2.69.875 2.69.875 5 2l-1 4-9 1c1-2 1-2 4-3l-2-2 3-2z"/><path fill="#DEB045" d="M107 317c1.48.254 2.96.529 4.44.812l2.5.457c1.02.362 1.02.362 2.07.73l1 3h-9l-1-5z"/><path fill="#E4B346" d="M420 186c1.34.322 2.67.658 4 1h4v3l-4 2h2v2c-1.94-.75-1.94-.75-4-2-.625-2.06-.625-2.06-1-4l-2-1 1-1z"/><path fill="#E4B247" d="M352 139h7l1 2 2 1v3l-5 2c-.268-.763-.536-1.53-.812-2.31-1.13-2.56-2.1-3.88-4.19-5.69z"/><path fill="#205598" d="M448 568v2c-1.62.864-3.25 1.72-4.88 2.56-1.36.713-1.36.713-2.74 1.44l-2.38.996-2-1 1-1-2-2h2l1-2h3v2c.598-.495 1.2-.99 1.81-1.5 2.19-1.5 2.19-1.5 5.19-1.5z"/><path fill="#E0B247" d="m181 402 4 1c-.667 2-1.33 4-2 6v2l4 1-5 1c-3-6.75-3-6.75-3-9h2v-2zM401 356c2 3 2 3 2 6-2.5 1.69-2.5 1.69-5 3v-2l-2-1v-4h5v-2z"/><path fill="#1F5699" d="m913 297 2 7-3 1c-2.34-2.13-3.71-4.12-5-7 2-1 2-1 6-1z"/><path fill="#E1B346" d="m214 200 4 2v6c-3 0-3 0-6-1l2-7z"/><path fill="#205598" d="M392 569h5l1 4c-3 2-3 2-5.56 1.75C390 574 390 574 388 572l4-1v-2z"/><path fill="#E3B84C" d="M1290 321h2v15h-1l-1-5h-1c-1.25-6.62-1.25-6.62 1-10z"/><path fill="#1F5699" d="M955 273h5c2.12 6.75 2.12 6.75 1 9l-3-1 1-5-3 1-1-4z"/><path fill="#E5B347" d="M136 234h1l2 8 3-1v3c-3.41.778-6.51 1.1-10 1l2-4h2v-7z"/><path fill="#E2B74B" d="m146 188-3 2c-.733 3.07-.733 3.07-1 6l-3-1 1-3h-2l-1 2 1-5c5.75-2.12 5.75-2.12 8-1z"/><path fill="#1F5699" d="M40 152h3c.249 1.6.474 3.21.688 4.81l.387 2.71c-.074 2.48-.074 2.48-3.07 5.48v-9h-2l1-4z"/><path fill="#235494" d="M170 561v2l-2 1 1 2-2 1 2 2h-5v-7c2.08-.553 3.84-1 6-1z"/><path fill="#DFB146" d="m538 386 2 1c.625 3.06.625 3.06 1 6h-6c.75-4.75.75-4.75 3-7z"/><path fill="#E4B347" d="M1325 327h2c1.12 3.75 1.12 3.75 0 6l2 1-1 4-3-1c-.749-3.66-1.24-6.42 0-10z"/><path fill="#215395" d="M84 109c2.38-.188 2.38-.188 5 0l2 3c-1.25 1.56-1.25 1.56-3 3-2.19-.312-2.19-.312-4-1v-5z"/><path fill="#205695" d="m409 39 3 1c.688 2.06.688 2.06 1 4l-4 1v-3l-1 3c-1.94-.375-1.94-.375-4-1l-1-2 6-1v-2z"/><path fill="#E2B74B" d="M1264 327h3c.375 7.5.375 7.5-3 12v-12z"/><path fill="#E4B346" d="m464 291 3 2-1 6h-5l-1-2c1.33-2 2.67-4 4-6zM1195 277l1.75 1.44c2.18 1.51 3.68 2.1 6.25 2.56l-2 2h-2l2 2h-5c-1-5.75-1-5.75-1-8zM126 228l1 2 3-1 1 4c-2.61.931-3.64 1.15-6.25.063-.578-.351-1.16-.701-1.75-1.06v-2l3-2z"/><path fill="#E5B347" d="M215 196c2.44.812 2.44.812 5 2l1 3c-3 1-3 1-5.19.063-.598-.351-1.2-.701-1.81-1.06l1-4z"/><path fill="#205595" d="M470 556c-1.22 1.01-2.45 2.01-3.69 3-1.03.835-1.03.835-2.07 1.69-2.63 1.54-4.24 1.56-7.24 1.31l1-2 2-.438 2-.562 1-3c3.13-1.04 3.99-.934 7 0z"/><path fill="#215395" d="M17 289c1.06 1.88 1.06 1.88 2 4l-1 2h-5l-1-5c2-1 2-1 5-1z"/><path fill="#E3B84C" d="M1475 273c2 2 2 2 2.12 5.12l-.125 2.88h-4v-3l-3-1v-2h4l1-2z"/><path fill="#E5B347" d="M415 260h4c1.86 3.13 2.2 5.37 2 9l-7-3 2-2c-.319-2.11-.319-2.11-1-4z"/><path fill="#E3B84C" d="m202 146 4 2-2 1 5 1-1 4c-2.17-.506-4-1-6-2-.688-1.94-.688-1.94-1-4l1-2z"/><path fill="#205595" d="M322 41c1.42-.054 2.83-.093 4.25-.125l2.39-.07c2.57.212 4.15.909 6.36 2.2l-1 1c-2.02-.09-4.05-.246-6.06-.438l-3.35-.31-2.59-.253v-2z"/><path fill="#DEB045" d="M333 446h6v5h-6v-5z"/><path fill="#E2B74B" d="m1322 382 5 1 1 3c-2.96 1.48-5.74 1.06-9 1l3-5z"/><path fill="#AE8A37" d="M556 374c1.61.452 3.21.912 4.81 1.38l2.71.773c2.48.852 2.48.852 5.48 2.85-5.62 1.12-5.62 1.12-9 0v-3l-4-1v-1z"/><path fill="#E1B446" d="m1330 289 3 1c2.14-.389 2.14-.389 4-1l-4 7-3-1v-6z"/><path fill="#1F5699" d="m879 287 3 1 1 6c-3.69-.498-5.6-1.1-8-4l4-1v-2z"/><path fill="#E0B247" d="M456 177h3v7h-5c-.125-2.38-.125-2.38 0-5l2-2z"/><path fill="#D8AA43" d="M336 104c2.88 1 2.88 1 5 2-.99 1.48-.99 1.48-2 3-3.87-1.04-7.49-2.04-11-4 2.79-1.39 4.9-1.18 8-1z"/><path fill="#E5B347" d="m203 410-1 3-5 1 1 4-6-1v-2h4l.875-1.94c1.67-3.07 2.65-3.06 6.12-3.06z"/><path fill="#E0B247" d="M379 330c1.33 2.67.671 4.17 0 7l-6 2 1-4h2l.375-1.94L377 331l2-1z"/><path fill="#E1B346" d="m1320 288 1 3 2-1c2-.04 4-.043 6 0l-1 2h-3l-1 2h-4c-1.12-3.75-1.12-3.75 0-6z"/><path fill="#E0B247" d="M403 169c2.06.438 2.06.438 4 1l-1 5-4 1c-.043-2-.04-4 0-6l1-1z"/><path fill="#050608" d="M1213 247h1v22h-1v-22zM679 323h1v6h-1v-6z"/><path fill="#E0B345" d="m102 276 1 4z"/><path fill="#DEB045" d="m540 96 3 1z"/><path fill="#215598" d="m355 1 2 1z"/></svg>